<mxfile host="app.diagrams.net" agent="Mozilla/5.0 (Macintosh; Intel Mac OS X 10_15_7) AppleWebKit/605.1.15 (KHTML, like Gecko) Version/18.3.1 Safari/605.1.15" version="26.2.8" pages="2">
  <diagram name="第 1 页" id="hkFTQ6nqRGRFWogeTZOQ">
    <mxGraphModel dx="2370" dy="1630" grid="1" gridSize="10" guides="1" tooltips="1" connect="1" arrows="1" fold="1" page="1" pageScale="1" pageWidth="827" pageHeight="1169" math="0" shadow="0">
      <root>
        <mxCell id="0" />
        <mxCell id="1" parent="0" />
        <mxCell id="Gw7uP9N_sIeIxdFlUJaT-1" style="edgeStyle=orthogonalEdgeStyle;rounded=0;orthogonalLoop=1;jettySize=auto;html=1;exitX=0.5;exitY=1;exitDx=0;exitDy=0;entryX=0.5;entryY=0;entryDx=0;entryDy=0;fontFamily=Helvetica;fontSize=12;fontColor=default;" edge="1" parent="1" source="Gw7uP9N_sIeIxdFlUJaT-2" target="Gw7uP9N_sIeIxdFlUJaT-4">
          <mxGeometry relative="1" as="geometry" />
        </mxCell>
        <mxCell id="Gw7uP9N_sIeIxdFlUJaT-2" value="&lt;font style=&quot;font-size: 15px;&quot;&gt;输入：B×S×D&lt;/font&gt;&lt;div&gt;&lt;font style=&quot;font-size: 15px;&quot;&gt;如 32×96×321&lt;/font&gt;&lt;/div&gt;" style="rounded=1;whiteSpace=wrap;html=1;" vertex="1" parent="1">
          <mxGeometry x="230" y="290" width="120" height="40" as="geometry" />
        </mxCell>
        <mxCell id="Gw7uP9N_sIeIxdFlUJaT-3" style="edgeStyle=orthogonalEdgeStyle;rounded=0;orthogonalLoop=1;jettySize=auto;html=1;exitX=0.5;exitY=1;exitDx=0;exitDy=0;entryX=0.5;entryY=0;entryDx=0;entryDy=0;fontFamily=Helvetica;fontSize=12;fontColor=default;" edge="1" parent="1" source="Gw7uP9N_sIeIxdFlUJaT-4" target="Gw7uP9N_sIeIxdFlUJaT-10">
          <mxGeometry relative="1" as="geometry" />
        </mxCell>
        <mxCell id="Gw7uP9N_sIeIxdFlUJaT-4" value="&lt;font style=&quot;font-size: 15px;&quot;&gt;特征嵌入：B×S×model_dim&lt;/font&gt;&lt;div&gt;&lt;font style=&quot;font-size: 15px;&quot;&gt;如 32×96×521&lt;/font&gt;&lt;/div&gt;" style="rounded=1;whiteSpace=wrap;html=1;" vertex="1" parent="1">
          <mxGeometry x="180" y="380" width="220" height="50" as="geometry" />
        </mxCell>
        <mxCell id="Gw7uP9N_sIeIxdFlUJaT-5" style="edgeStyle=orthogonalEdgeStyle;rounded=0;orthogonalLoop=1;jettySize=auto;html=1;exitX=0.5;exitY=1;exitDx=0;exitDy=0;entryX=0.5;entryY=0;entryDx=0;entryDy=0;fontFamily=Helvetica;fontSize=12;fontColor=default;" edge="1" parent="1" source="Gw7uP9N_sIeIxdFlUJaT-10" target="Gw7uP9N_sIeIxdFlUJaT-14">
          <mxGeometry relative="1" as="geometry" />
        </mxCell>
        <mxCell id="Gw7uP9N_sIeIxdFlUJaT-6" style="edgeStyle=orthogonalEdgeStyle;rounded=0;orthogonalLoop=1;jettySize=auto;html=1;exitX=1;exitY=0.5;exitDx=0;exitDy=0;entryX=0;entryY=0.5;entryDx=0;entryDy=0;fontFamily=Helvetica;fontSize=12;fontColor=default;" edge="1" parent="1" source="Gw7uP9N_sIeIxdFlUJaT-10" target="Gw7uP9N_sIeIxdFlUJaT-19">
          <mxGeometry relative="1" as="geometry" />
        </mxCell>
        <mxCell id="Gw7uP9N_sIeIxdFlUJaT-7" style="edgeStyle=orthogonalEdgeStyle;rounded=0;orthogonalLoop=1;jettySize=auto;html=1;exitX=1;exitY=0.5;exitDx=0;exitDy=0;entryX=0;entryY=0.25;entryDx=0;entryDy=0;fontFamily=Helvetica;fontSize=12;fontColor=default;movable=0;resizable=0;rotatable=0;deletable=0;editable=0;locked=1;connectable=0;" edge="1" parent="1" source="Gw7uP9N_sIeIxdFlUJaT-10" target="Gw7uP9N_sIeIxdFlUJaT-19">
          <mxGeometry relative="1" as="geometry">
            <Array as="points">
              <mxPoint x="530" y="505" />
              <mxPoint x="530" y="493" />
            </Array>
          </mxGeometry>
        </mxCell>
        <mxCell id="Gw7uP9N_sIeIxdFlUJaT-8" style="edgeStyle=orthogonalEdgeStyle;rounded=0;orthogonalLoop=1;jettySize=auto;html=1;exitX=1;exitY=0.5;exitDx=0;exitDy=0;entryX=0;entryY=0.75;entryDx=0;entryDy=0;fontFamily=Helvetica;fontSize=12;fontColor=default;movable=0;resizable=0;rotatable=0;deletable=0;editable=0;locked=1;connectable=0;" edge="1" parent="1" source="Gw7uP9N_sIeIxdFlUJaT-10" target="Gw7uP9N_sIeIxdFlUJaT-19">
          <mxGeometry relative="1" as="geometry">
            <Array as="points">
              <mxPoint x="530" y="505" />
              <mxPoint x="530" y="517" />
            </Array>
          </mxGeometry>
        </mxCell>
        <mxCell id="Gw7uP9N_sIeIxdFlUJaT-9" style="edgeStyle=orthogonalEdgeStyle;rounded=0;orthogonalLoop=1;jettySize=auto;html=1;exitX=1;exitY=0.5;exitDx=0;exitDy=0;entryX=0.5;entryY=0;entryDx=0;entryDy=0;fontFamily=Helvetica;fontSize=12;fontColor=default;" edge="1" parent="1" source="Gw7uP9N_sIeIxdFlUJaT-10" target="Gw7uP9N_sIeIxdFlUJaT-22">
          <mxGeometry relative="1" as="geometry">
            <Array as="points">
              <mxPoint x="510" y="505" />
              <mxPoint x="510" y="460" />
              <mxPoint x="813" y="460" />
            </Array>
          </mxGeometry>
        </mxCell>
        <mxCell id="Gw7uP9N_sIeIxdFlUJaT-10" value="&lt;font style=&quot;font-size: 15px;&quot;&gt;permute：B×model_dim&lt;/font&gt;&lt;span style=&quot;font-size: 15px;&quot;&gt;×S&lt;/span&gt;&lt;div&gt;&lt;font style=&quot;font-size: 15px;&quot;&gt;如 32×521×96&lt;/font&gt;&lt;/div&gt;" style="rounded=1;whiteSpace=wrap;html=1;" vertex="1" parent="1">
          <mxGeometry x="260" y="480" width="220" height="50" as="geometry" />
        </mxCell>
        <mxCell id="Gw7uP9N_sIeIxdFlUJaT-11" style="edgeStyle=orthogonalEdgeStyle;rounded=0;orthogonalLoop=1;jettySize=auto;html=1;exitX=0.5;exitY=1;exitDx=0;exitDy=0;fontFamily=Helvetica;fontSize=12;fontColor=default;" edge="1" parent="1" source="Gw7uP9N_sIeIxdFlUJaT-14" target="Gw7uP9N_sIeIxdFlUJaT-16">
          <mxGeometry relative="1" as="geometry" />
        </mxCell>
        <mxCell id="Gw7uP9N_sIeIxdFlUJaT-12" style="edgeStyle=orthogonalEdgeStyle;rounded=0;orthogonalLoop=1;jettySize=auto;html=1;exitX=1;exitY=0.5;exitDx=0;exitDy=0;entryX=0;entryY=0.5;entryDx=0;entryDy=0;fontFamily=Helvetica;fontSize=12;fontColor=default;" edge="1" parent="1" source="Gw7uP9N_sIeIxdFlUJaT-14" target="Gw7uP9N_sIeIxdFlUJaT-28">
          <mxGeometry relative="1" as="geometry" />
        </mxCell>
        <mxCell id="Gw7uP9N_sIeIxdFlUJaT-13" style="edgeStyle=orthogonalEdgeStyle;rounded=0;orthogonalLoop=1;jettySize=auto;html=1;exitX=1;exitY=0.5;exitDx=0;exitDy=0;entryX=0.5;entryY=0;entryDx=0;entryDy=0;fontFamily=Helvetica;fontSize=12;fontColor=default;" edge="1" parent="1" source="Gw7uP9N_sIeIxdFlUJaT-14" target="Gw7uP9N_sIeIxdFlUJaT-30">
          <mxGeometry relative="1" as="geometry">
            <Array as="points">
              <mxPoint x="590" y="665" />
              <mxPoint x="590" y="620" />
              <mxPoint x="913" y="620" />
            </Array>
          </mxGeometry>
        </mxCell>
        <mxCell id="Gw7uP9N_sIeIxdFlUJaT-45" style="edgeStyle=orthogonalEdgeStyle;rounded=0;orthogonalLoop=1;jettySize=auto;html=1;exitX=1;exitY=0.5;exitDx=0;exitDy=0;entryX=0;entryY=0.25;entryDx=0;entryDy=0;fontFamily=Helvetica;fontSize=12;fontColor=default;" edge="1" parent="1" source="Gw7uP9N_sIeIxdFlUJaT-14" target="Gw7uP9N_sIeIxdFlUJaT-28">
          <mxGeometry relative="1" as="geometry" />
        </mxCell>
        <mxCell id="Gw7uP9N_sIeIxdFlUJaT-46" style="edgeStyle=orthogonalEdgeStyle;rounded=0;orthogonalLoop=1;jettySize=auto;html=1;exitX=1;exitY=0.5;exitDx=0;exitDy=0;entryX=0;entryY=0.75;entryDx=0;entryDy=0;fontFamily=Helvetica;fontSize=12;fontColor=default;" edge="1" parent="1" source="Gw7uP9N_sIeIxdFlUJaT-14" target="Gw7uP9N_sIeIxdFlUJaT-28">
          <mxGeometry relative="1" as="geometry" />
        </mxCell>
        <mxCell id="Gw7uP9N_sIeIxdFlUJaT-14" value="&lt;font style=&quot;font-size: 15px;&quot;&gt;permute：B×model_dim&lt;/font&gt;&lt;span style=&quot;font-size: 15px;&quot;&gt;×(S/2)&lt;/span&gt;&lt;div&gt;&lt;font style=&quot;font-size: 15px;&quot;&gt;如 32×521×48&lt;/font&gt;&lt;/div&gt;" style="rounded=1;whiteSpace=wrap;html=1;" vertex="1" parent="1">
          <mxGeometry x="350" y="640" width="220" height="50" as="geometry" />
        </mxCell>
        <mxCell id="Gw7uP9N_sIeIxdFlUJaT-15" style="edgeStyle=orthogonalEdgeStyle;rounded=0;orthogonalLoop=1;jettySize=auto;html=1;exitX=0.5;exitY=1;exitDx=0;exitDy=0;entryX=0.5;entryY=0;entryDx=0;entryDy=0;fontFamily=Helvetica;fontSize=12;fontColor=default;" edge="1" parent="1" source="Gw7uP9N_sIeIxdFlUJaT-16" target="Gw7uP9N_sIeIxdFlUJaT-17">
          <mxGeometry relative="1" as="geometry" />
        </mxCell>
        <mxCell id="Gw7uP9N_sIeIxdFlUJaT-57" style="edgeStyle=orthogonalEdgeStyle;rounded=0;orthogonalLoop=1;jettySize=auto;html=1;exitX=1;exitY=0.5;exitDx=0;exitDy=0;fontFamily=Helvetica;fontSize=12;fontColor=default;" edge="1" parent="1" source="Gw7uP9N_sIeIxdFlUJaT-16" target="Gw7uP9N_sIeIxdFlUJaT-49">
          <mxGeometry relative="1" as="geometry" />
        </mxCell>
        <mxCell id="Gw7uP9N_sIeIxdFlUJaT-58" style="edgeStyle=orthogonalEdgeStyle;rounded=0;orthogonalLoop=1;jettySize=auto;html=1;exitX=1;exitY=0.5;exitDx=0;exitDy=0;entryX=0.5;entryY=0;entryDx=0;entryDy=0;fontFamily=Helvetica;fontSize=12;fontColor=default;" edge="1" parent="1" source="Gw7uP9N_sIeIxdFlUJaT-16" target="Gw7uP9N_sIeIxdFlUJaT-52">
          <mxGeometry relative="1" as="geometry">
            <Array as="points">
              <mxPoint x="680" y="815" />
              <mxPoint x="680" y="770" />
              <mxPoint x="1003" y="770" />
            </Array>
          </mxGeometry>
        </mxCell>
        <mxCell id="Gw7uP9N_sIeIxdFlUJaT-59" style="edgeStyle=orthogonalEdgeStyle;rounded=0;orthogonalLoop=1;jettySize=auto;html=1;exitX=1;exitY=0.5;exitDx=0;exitDy=0;entryX=0;entryY=0.25;entryDx=0;entryDy=0;fontFamily=Helvetica;fontSize=12;fontColor=default;" edge="1" parent="1" source="Gw7uP9N_sIeIxdFlUJaT-16" target="Gw7uP9N_sIeIxdFlUJaT-49">
          <mxGeometry relative="1" as="geometry" />
        </mxCell>
        <mxCell id="Gw7uP9N_sIeIxdFlUJaT-60" style="edgeStyle=orthogonalEdgeStyle;rounded=0;orthogonalLoop=1;jettySize=auto;html=1;exitX=1;exitY=0.5;exitDx=0;exitDy=0;entryX=0;entryY=0.75;entryDx=0;entryDy=0;fontFamily=Helvetica;fontSize=12;fontColor=default;" edge="1" parent="1" source="Gw7uP9N_sIeIxdFlUJaT-16" target="Gw7uP9N_sIeIxdFlUJaT-49">
          <mxGeometry relative="1" as="geometry" />
        </mxCell>
        <mxCell id="Gw7uP9N_sIeIxdFlUJaT-16" value="&lt;font style=&quot;font-size: 15px;&quot;&gt;permute：B×model_dim&lt;/font&gt;&lt;span style=&quot;font-size: 15px;&quot;&gt;×(S/4)&lt;/span&gt;&lt;div&gt;&lt;font style=&quot;font-size: 15px;&quot;&gt;如 32×521×24&lt;/font&gt;&lt;/div&gt;" style="rounded=1;whiteSpace=wrap;html=1;" vertex="1" parent="1">
          <mxGeometry x="424" y="790" width="220" height="50" as="geometry" />
        </mxCell>
        <mxCell id="Gw7uP9N_sIeIxdFlUJaT-70" style="edgeStyle=orthogonalEdgeStyle;rounded=0;orthogonalLoop=1;jettySize=auto;html=1;exitX=1;exitY=0.5;exitDx=0;exitDy=0;entryX=0;entryY=0.5;entryDx=0;entryDy=0;fontFamily=Helvetica;fontSize=12;fontColor=default;" edge="1" parent="1" source="Gw7uP9N_sIeIxdFlUJaT-17" target="Gw7uP9N_sIeIxdFlUJaT-62">
          <mxGeometry relative="1" as="geometry" />
        </mxCell>
        <mxCell id="Gw7uP9N_sIeIxdFlUJaT-71" style="edgeStyle=orthogonalEdgeStyle;rounded=0;orthogonalLoop=1;jettySize=auto;html=1;exitX=1;exitY=0.5;exitDx=0;exitDy=0;entryX=0.5;entryY=0;entryDx=0;entryDy=0;fontFamily=Helvetica;fontSize=12;fontColor=default;" edge="1" parent="1" source="Gw7uP9N_sIeIxdFlUJaT-17" target="Gw7uP9N_sIeIxdFlUJaT-65">
          <mxGeometry relative="1" as="geometry">
            <Array as="points">
              <mxPoint x="780" y="985" />
              <mxPoint x="780" y="940" />
              <mxPoint x="1103" y="940" />
            </Array>
          </mxGeometry>
        </mxCell>
        <mxCell id="Gw7uP9N_sIeIxdFlUJaT-72" style="edgeStyle=orthogonalEdgeStyle;rounded=0;orthogonalLoop=1;jettySize=auto;html=1;exitX=1;exitY=0.5;exitDx=0;exitDy=0;entryX=0;entryY=0.25;entryDx=0;entryDy=0;fontFamily=Helvetica;fontSize=12;fontColor=default;" edge="1" parent="1" source="Gw7uP9N_sIeIxdFlUJaT-17" target="Gw7uP9N_sIeIxdFlUJaT-62">
          <mxGeometry relative="1" as="geometry" />
        </mxCell>
        <mxCell id="Gw7uP9N_sIeIxdFlUJaT-73" style="edgeStyle=orthogonalEdgeStyle;rounded=0;orthogonalLoop=1;jettySize=auto;html=1;exitX=1;exitY=0.5;exitDx=0;exitDy=0;entryX=0;entryY=0.75;entryDx=0;entryDy=0;fontFamily=Helvetica;fontSize=12;fontColor=default;" edge="1" parent="1" source="Gw7uP9N_sIeIxdFlUJaT-17" target="Gw7uP9N_sIeIxdFlUJaT-62">
          <mxGeometry relative="1" as="geometry" />
        </mxCell>
        <mxCell id="Gw7uP9N_sIeIxdFlUJaT-17" value="&lt;font style=&quot;font-size: 15px;&quot;&gt;permute：B×model_dim&lt;/font&gt;&lt;span style=&quot;font-size: 15px;&quot;&gt;×(S/8)&lt;/span&gt;&lt;div&gt;&lt;font style=&quot;font-size: 15px;&quot;&gt;如 32×521×12&lt;/font&gt;&lt;/div&gt;" style="rounded=1;whiteSpace=wrap;html=1;" vertex="1" parent="1">
          <mxGeometry x="540" y="960" width="220" height="50" as="geometry" />
        </mxCell>
        <mxCell id="Gw7uP9N_sIeIxdFlUJaT-27" style="edgeStyle=orthogonalEdgeStyle;rounded=0;orthogonalLoop=1;jettySize=auto;html=1;exitX=1;exitY=0.5;exitDx=0;exitDy=0;entryX=0;entryY=0.5;entryDx=0;entryDy=0;fontFamily=Helvetica;fontSize=12;fontColor=default;" edge="1" parent="1" source="Gw7uP9N_sIeIxdFlUJaT-28" target="Gw7uP9N_sIeIxdFlUJaT-30">
          <mxGeometry relative="1" as="geometry" />
        </mxCell>
        <mxCell id="Gw7uP9N_sIeIxdFlUJaT-28" value="&lt;font style=&quot;font-size: 15px;&quot;&gt;AutoCorrelation：B×(S/2)×D&lt;/font&gt;&lt;div&gt;&lt;font style=&quot;font-size: 15px;&quot;&gt;out： 32×521×48&lt;/font&gt;&lt;/div&gt;" style="rounded=1;whiteSpace=wrap;html=1;" vertex="1" parent="1">
          <mxGeometry x="644" y="640" width="206" height="50" as="geometry" />
        </mxCell>
        <mxCell id="Gw7uP9N_sIeIxdFlUJaT-29" style="edgeStyle=orthogonalEdgeStyle;rounded=0;orthogonalLoop=1;jettySize=auto;html=1;exitX=1;exitY=0.5;exitDx=0;exitDy=0;entryX=0;entryY=0.5;entryDx=0;entryDy=0;fontFamily=Helvetica;fontSize=12;fontColor=default;" edge="1" parent="1" source="Gw7uP9N_sIeIxdFlUJaT-30" target="Gw7uP9N_sIeIxdFlUJaT-32">
          <mxGeometry relative="1" as="geometry" />
        </mxCell>
        <mxCell id="Gw7uP9N_sIeIxdFlUJaT-35" style="edgeStyle=orthogonalEdgeStyle;rounded=0;orthogonalLoop=1;jettySize=auto;html=1;exitX=1;exitY=0.5;exitDx=0;exitDy=0;entryX=0.5;entryY=0;entryDx=0;entryDy=0;fontFamily=Helvetica;fontSize=12;fontColor=default;" edge="1" parent="1" source="Gw7uP9N_sIeIxdFlUJaT-30" target="Gw7uP9N_sIeIxdFlUJaT-34">
          <mxGeometry relative="1" as="geometry">
            <Array as="points">
              <mxPoint x="1070" y="665" />
              <mxPoint x="1070" y="633" />
              <mxPoint x="1420" y="633" />
            </Array>
          </mxGeometry>
        </mxCell>
        <mxCell id="Gw7uP9N_sIeIxdFlUJaT-30" value="" style="shape=orEllipse;perimeter=ellipsePerimeter;whiteSpace=wrap;html=1;backgroundOutline=1;rounded=1;strokeColor=default;align=center;verticalAlign=middle;fontFamily=Helvetica;fontSize=12;fontColor=default;fillColor=default;" vertex="1" parent="1">
          <mxGeometry x="900" y="652.5" width="25" height="25" as="geometry" />
        </mxCell>
        <mxCell id="Gw7uP9N_sIeIxdFlUJaT-31" style="edgeStyle=orthogonalEdgeStyle;rounded=0;orthogonalLoop=1;jettySize=auto;html=1;exitX=1;exitY=0.5;exitDx=0;exitDy=0;entryX=0;entryY=0.5;entryDx=0;entryDy=0;fontFamily=Helvetica;fontSize=12;fontColor=default;" edge="1" parent="1" source="Gw7uP9N_sIeIxdFlUJaT-32" target="Gw7uP9N_sIeIxdFlUJaT-34">
          <mxGeometry relative="1" as="geometry" />
        </mxCell>
        <mxCell id="Gw7uP9N_sIeIxdFlUJaT-32" value="&lt;font style=&quot;font-size: 15px;&quot;&gt;GRU：B×(S/2)×D&lt;/font&gt;&lt;div&gt;&lt;font style=&quot;font-size: 15px;&quot;&gt;如 1×521×48&lt;/font&gt;&lt;/div&gt;" style="rounded=1;whiteSpace=wrap;html=1;" vertex="1" parent="1">
          <mxGeometry x="1217" y="645" width="143" height="40" as="geometry" />
        </mxCell>
        <mxCell id="Gw7uP9N_sIeIxdFlUJaT-33" style="edgeStyle=orthogonalEdgeStyle;rounded=0;orthogonalLoop=1;jettySize=auto;html=1;exitX=1;exitY=0.5;exitDx=0;exitDy=0;fontFamily=Helvetica;fontSize=12;fontColor=default;" edge="1" parent="1" source="Gw7uP9N_sIeIxdFlUJaT-34" target="Gw7uP9N_sIeIxdFlUJaT-102">
          <mxGeometry relative="1" as="geometry">
            <mxPoint x="1260" y="665.3529411764707" as="targetPoint" />
          </mxGeometry>
        </mxCell>
        <mxCell id="Gw7uP9N_sIeIxdFlUJaT-104" style="edgeStyle=orthogonalEdgeStyle;rounded=0;orthogonalLoop=1;jettySize=auto;html=1;exitX=1;exitY=0.5;exitDx=0;exitDy=0;entryX=0;entryY=0.25;entryDx=0;entryDy=0;fontFamily=Helvetica;fontSize=12;fontColor=default;" edge="1" parent="1" source="Gw7uP9N_sIeIxdFlUJaT-34" target="Gw7uP9N_sIeIxdFlUJaT-102">
          <mxGeometry relative="1" as="geometry">
            <Array as="points">
              <mxPoint x="1690" y="665" />
              <mxPoint x="1690" y="653" />
            </Array>
          </mxGeometry>
        </mxCell>
        <mxCell id="Gw7uP9N_sIeIxdFlUJaT-34" value="" style="shape=orEllipse;perimeter=ellipsePerimeter;whiteSpace=wrap;html=1;backgroundOutline=1;rounded=1;strokeColor=default;align=center;verticalAlign=middle;fontFamily=Helvetica;fontSize=12;fontColor=default;fillColor=default;" vertex="1" parent="1">
          <mxGeometry x="1407" y="652.5" width="25" height="25" as="geometry" />
        </mxCell>
        <mxCell id="Gw7uP9N_sIeIxdFlUJaT-48" style="edgeStyle=orthogonalEdgeStyle;rounded=0;orthogonalLoop=1;jettySize=auto;html=1;exitX=1;exitY=0.5;exitDx=0;exitDy=0;entryX=0;entryY=0.5;entryDx=0;entryDy=0;fontFamily=Helvetica;fontSize=12;fontColor=default;" edge="1" parent="1" source="Gw7uP9N_sIeIxdFlUJaT-49" target="Gw7uP9N_sIeIxdFlUJaT-52">
          <mxGeometry relative="1" as="geometry" />
        </mxCell>
        <mxCell id="Gw7uP9N_sIeIxdFlUJaT-49" value="&lt;font style=&quot;font-size: 15px;&quot;&gt;AutoCorrelation：B×(S/4)×D&lt;/font&gt;&lt;div&gt;&lt;font style=&quot;font-size: 15px;&quot;&gt;out： 32×521×24&lt;/font&gt;&lt;/div&gt;" style="rounded=1;whiteSpace=wrap;html=1;" vertex="1" parent="1">
          <mxGeometry x="750" y="790" width="210" height="50" as="geometry" />
        </mxCell>
        <mxCell id="Gw7uP9N_sIeIxdFlUJaT-50" style="edgeStyle=orthogonalEdgeStyle;rounded=0;orthogonalLoop=1;jettySize=auto;html=1;exitX=1;exitY=0.5;exitDx=0;exitDy=0;entryX=0;entryY=0.5;entryDx=0;entryDy=0;fontFamily=Helvetica;fontSize=12;fontColor=default;" edge="1" parent="1" source="Gw7uP9N_sIeIxdFlUJaT-52" target="Gw7uP9N_sIeIxdFlUJaT-54">
          <mxGeometry relative="1" as="geometry" />
        </mxCell>
        <mxCell id="Gw7uP9N_sIeIxdFlUJaT-51" style="edgeStyle=orthogonalEdgeStyle;rounded=0;orthogonalLoop=1;jettySize=auto;html=1;exitX=1;exitY=0.5;exitDx=0;exitDy=0;entryX=0.5;entryY=0;entryDx=0;entryDy=0;fontFamily=Helvetica;fontSize=12;fontColor=default;" edge="1" parent="1" source="Gw7uP9N_sIeIxdFlUJaT-52" target="Gw7uP9N_sIeIxdFlUJaT-56">
          <mxGeometry relative="1" as="geometry">
            <Array as="points">
              <mxPoint x="1080" y="815" />
              <mxPoint x="1080" y="783" />
              <mxPoint x="1335" y="783" />
            </Array>
          </mxGeometry>
        </mxCell>
        <mxCell id="Gw7uP9N_sIeIxdFlUJaT-52" value="" style="shape=orEllipse;perimeter=ellipsePerimeter;whiteSpace=wrap;html=1;backgroundOutline=1;rounded=1;strokeColor=default;align=center;verticalAlign=middle;fontFamily=Helvetica;fontSize=12;fontColor=default;fillColor=default;" vertex="1" parent="1">
          <mxGeometry x="990" y="802.5" width="25" height="25" as="geometry" />
        </mxCell>
        <mxCell id="Gw7uP9N_sIeIxdFlUJaT-53" style="edgeStyle=orthogonalEdgeStyle;rounded=0;orthogonalLoop=1;jettySize=auto;html=1;exitX=1;exitY=0.5;exitDx=0;exitDy=0;entryX=0;entryY=0.5;entryDx=0;entryDy=0;fontFamily=Helvetica;fontSize=12;fontColor=default;" edge="1" parent="1" source="Gw7uP9N_sIeIxdFlUJaT-54" target="Gw7uP9N_sIeIxdFlUJaT-56">
          <mxGeometry relative="1" as="geometry" />
        </mxCell>
        <mxCell id="Gw7uP9N_sIeIxdFlUJaT-54" value="&lt;font style=&quot;font-size: 15px;&quot;&gt;GRU：B×(S/4)×D&lt;/font&gt;&lt;div&gt;&lt;font style=&quot;font-size: 15px;&quot;&gt;如 1×32*521×24&lt;/font&gt;&lt;/div&gt;" style="rounded=1;whiteSpace=wrap;html=1;" vertex="1" parent="1">
          <mxGeometry x="1132.5" y="795" width="137.5" height="40" as="geometry" />
        </mxCell>
        <mxCell id="Gw7uP9N_sIeIxdFlUJaT-55" style="edgeStyle=orthogonalEdgeStyle;rounded=0;orthogonalLoop=1;jettySize=auto;html=1;exitX=1;exitY=0.5;exitDx=0;exitDy=0;fontFamily=Helvetica;fontSize=12;fontColor=default;" edge="1" parent="1" source="Gw7uP9N_sIeIxdFlUJaT-56" target="Gw7uP9N_sIeIxdFlUJaT-78">
          <mxGeometry relative="1" as="geometry">
            <mxPoint x="1350" y="815.3529411764707" as="targetPoint" />
            <Array as="points">
              <mxPoint x="1430" y="815" />
              <mxPoint x="1430" y="820" />
            </Array>
          </mxGeometry>
        </mxCell>
        <mxCell id="Gw7uP9N_sIeIxdFlUJaT-79" style="edgeStyle=orthogonalEdgeStyle;rounded=0;orthogonalLoop=1;jettySize=auto;html=1;exitX=1;exitY=0.5;exitDx=0;exitDy=0;fontFamily=Helvetica;fontSize=12;fontColor=default;entryX=0;entryY=0.25;entryDx=0;entryDy=0;" edge="1" parent="1" source="Gw7uP9N_sIeIxdFlUJaT-56" target="Gw7uP9N_sIeIxdFlUJaT-78">
          <mxGeometry relative="1" as="geometry">
            <mxPoint x="1370" y="800" as="targetPoint" />
            <Array as="points">
              <mxPoint x="1430" y="815" />
              <mxPoint x="1430" y="808" />
            </Array>
          </mxGeometry>
        </mxCell>
        <mxCell id="Gw7uP9N_sIeIxdFlUJaT-56" value="" style="shape=orEllipse;perimeter=ellipsePerimeter;whiteSpace=wrap;html=1;backgroundOutline=1;rounded=1;strokeColor=default;align=center;verticalAlign=middle;fontFamily=Helvetica;fontSize=12;fontColor=default;fillColor=default;" vertex="1" parent="1">
          <mxGeometry x="1322.5" y="802.5" width="25" height="25" as="geometry" />
        </mxCell>
        <mxCell id="Gw7uP9N_sIeIxdFlUJaT-61" style="edgeStyle=orthogonalEdgeStyle;rounded=0;orthogonalLoop=1;jettySize=auto;html=1;exitX=1;exitY=0.5;exitDx=0;exitDy=0;entryX=0;entryY=0.5;entryDx=0;entryDy=0;fontFamily=Helvetica;fontSize=12;fontColor=default;" edge="1" parent="1" source="Gw7uP9N_sIeIxdFlUJaT-62" target="Gw7uP9N_sIeIxdFlUJaT-65">
          <mxGeometry relative="1" as="geometry" />
        </mxCell>
        <mxCell id="Gw7uP9N_sIeIxdFlUJaT-62" value="&lt;font style=&quot;font-size: 15px;&quot;&gt;AutoCorrelation：B×(S/8)×D&lt;/font&gt;&lt;div&gt;&lt;font style=&quot;font-size: 15px;&quot;&gt;out： 32×512×12&lt;/font&gt;&lt;/div&gt;" style="rounded=1;whiteSpace=wrap;html=1;" vertex="1" parent="1">
          <mxGeometry x="850" y="960" width="210" height="50" as="geometry" />
        </mxCell>
        <mxCell id="Gw7uP9N_sIeIxdFlUJaT-63" style="edgeStyle=orthogonalEdgeStyle;rounded=0;orthogonalLoop=1;jettySize=auto;html=1;exitX=1;exitY=0.5;exitDx=0;exitDy=0;entryX=0;entryY=0.5;entryDx=0;entryDy=0;fontFamily=Helvetica;fontSize=12;fontColor=default;" edge="1" parent="1" source="Gw7uP9N_sIeIxdFlUJaT-65" target="Gw7uP9N_sIeIxdFlUJaT-67">
          <mxGeometry relative="1" as="geometry" />
        </mxCell>
        <mxCell id="Gw7uP9N_sIeIxdFlUJaT-64" style="edgeStyle=orthogonalEdgeStyle;rounded=0;orthogonalLoop=1;jettySize=auto;html=1;exitX=1;exitY=0.5;exitDx=0;exitDy=0;entryX=0.5;entryY=0;entryDx=0;entryDy=0;fontFamily=Helvetica;fontSize=12;fontColor=default;" edge="1" parent="1" source="Gw7uP9N_sIeIxdFlUJaT-65" target="Gw7uP9N_sIeIxdFlUJaT-69">
          <mxGeometry relative="1" as="geometry">
            <Array as="points">
              <mxPoint x="1150" y="985" />
              <mxPoint x="1150" y="953" />
              <mxPoint x="1383" y="953" />
            </Array>
          </mxGeometry>
        </mxCell>
        <mxCell id="Gw7uP9N_sIeIxdFlUJaT-65" value="" style="shape=orEllipse;perimeter=ellipsePerimeter;whiteSpace=wrap;html=1;backgroundOutline=1;rounded=1;strokeColor=default;align=center;verticalAlign=middle;fontFamily=Helvetica;fontSize=12;fontColor=default;fillColor=default;" vertex="1" parent="1">
          <mxGeometry x="1090" y="972.5" width="25" height="25" as="geometry" />
        </mxCell>
        <mxCell id="Gw7uP9N_sIeIxdFlUJaT-66" style="edgeStyle=orthogonalEdgeStyle;rounded=0;orthogonalLoop=1;jettySize=auto;html=1;exitX=1;exitY=0.5;exitDx=0;exitDy=0;entryX=0;entryY=0.5;entryDx=0;entryDy=0;fontFamily=Helvetica;fontSize=12;fontColor=default;" edge="1" parent="1" source="Gw7uP9N_sIeIxdFlUJaT-67" target="Gw7uP9N_sIeIxdFlUJaT-69">
          <mxGeometry relative="1" as="geometry" />
        </mxCell>
        <mxCell id="Gw7uP9N_sIeIxdFlUJaT-67" value="&lt;font style=&quot;font-size: 15px;&quot;&gt;GRU：B×(S/8)×D&lt;/font&gt;&lt;div&gt;&lt;font style=&quot;font-size: 15px;&quot;&gt;如 1×32*521×12&lt;/font&gt;&lt;/div&gt;" style="rounded=1;whiteSpace=wrap;html=1;" vertex="1" parent="1">
          <mxGeometry x="1180" y="965" width="140" height="40" as="geometry" />
        </mxCell>
        <mxCell id="Gw7uP9N_sIeIxdFlUJaT-68" style="edgeStyle=orthogonalEdgeStyle;rounded=0;orthogonalLoop=1;jettySize=auto;html=1;exitX=1;exitY=0.5;exitDx=0;exitDy=0;fontFamily=Helvetica;fontSize=12;fontColor=default;entryX=0;entryY=0.75;entryDx=0;entryDy=0;" edge="1" parent="1" source="Gw7uP9N_sIeIxdFlUJaT-69" target="Gw7uP9N_sIeIxdFlUJaT-78">
          <mxGeometry relative="1" as="geometry">
            <mxPoint x="1450" y="985.3529411764707" as="targetPoint" />
          </mxGeometry>
        </mxCell>
        <mxCell id="Gw7uP9N_sIeIxdFlUJaT-69" value="" style="shape=orEllipse;perimeter=ellipsePerimeter;whiteSpace=wrap;html=1;backgroundOutline=1;rounded=1;strokeColor=default;align=center;verticalAlign=middle;fontFamily=Helvetica;fontSize=12;fontColor=default;fillColor=default;" vertex="1" parent="1">
          <mxGeometry x="1370" y="972.5" width="25" height="25" as="geometry" />
        </mxCell>
        <mxCell id="Gw7uP9N_sIeIxdFlUJaT-75" value="12 个 512 之间的相关关系" style="text;html=1;align=center;verticalAlign=middle;whiteSpace=wrap;rounded=0;fontFamily=Helvetica;fontSize=12;fontColor=default;" vertex="1" parent="1">
          <mxGeometry x="883" y="1050" width="167" height="50" as="geometry" />
        </mxCell>
        <mxCell id="Gw7uP9N_sIeIxdFlUJaT-76" value="12 个 步长之间的相关关系" style="text;html=1;align=center;verticalAlign=middle;whiteSpace=wrap;rounded=0;fontFamily=Helvetica;fontSize=12;fontColor=default;" vertex="1" parent="1">
          <mxGeometry x="1160" y="1040" width="167" height="50" as="geometry" />
        </mxCell>
        <mxCell id="Gw7uP9N_sIeIxdFlUJaT-77" value="12 之间的相关关系&lt;div&gt;512 之间的相关关系&lt;/div&gt;" style="text;html=1;align=center;verticalAlign=middle;whiteSpace=wrap;rounded=0;fontFamily=Helvetica;fontSize=12;fontColor=default;" vertex="1" parent="1">
          <mxGeometry x="883" y="1090" width="167" height="50" as="geometry" />
        </mxCell>
        <mxCell id="Gw7uP9N_sIeIxdFlUJaT-103" style="edgeStyle=orthogonalEdgeStyle;rounded=0;orthogonalLoop=1;jettySize=auto;html=1;exitX=1;exitY=0.5;exitDx=0;exitDy=0;entryX=0;entryY=0.75;entryDx=0;entryDy=0;fontFamily=Helvetica;fontSize=12;fontColor=default;" edge="1" parent="1" source="Gw7uP9N_sIeIxdFlUJaT-78" target="Gw7uP9N_sIeIxdFlUJaT-102">
          <mxGeometry relative="1" as="geometry" />
        </mxCell>
        <mxCell id="Gw7uP9N_sIeIxdFlUJaT-78" value="&lt;font style=&quot;font-size: 15px;&quot;&gt;AutoCorrelation：B×(S/4)×D&lt;/font&gt;&lt;div&gt;&lt;font style=&quot;font-size: 15px;&quot;&gt;out： 32×512×12&lt;/font&gt;&lt;/div&gt;" style="rounded=1;whiteSpace=wrap;html=1;" vertex="1" parent="1">
          <mxGeometry x="1460" y="795" width="200" height="50" as="geometry" />
        </mxCell>
        <mxCell id="Gw7uP9N_sIeIxdFlUJaT-82" value="&lt;font style=&quot;font-size: 9px;&quot;&gt;V&lt;/font&gt;" style="text;html=1;align=center;verticalAlign=middle;whiteSpace=wrap;rounded=0;fontFamily=Helvetica;fontSize=12;fontColor=default;" vertex="1" parent="1">
          <mxGeometry x="612.5" y="642" width="15" height="7.5" as="geometry" />
        </mxCell>
        <mxCell id="Gw7uP9N_sIeIxdFlUJaT-85" value="&lt;font style=&quot;font-size: 9px;&quot;&gt;K&lt;/font&gt;" style="text;html=1;align=center;verticalAlign=middle;whiteSpace=wrap;rounded=0;fontFamily=Helvetica;fontSize=12;fontColor=default;" vertex="1" parent="1">
          <mxGeometry x="612.5" y="655.5" width="15" height="7.5" as="geometry" />
        </mxCell>
        <mxCell id="Gw7uP9N_sIeIxdFlUJaT-86" value="&lt;span style=&quot;font-size: 9px;&quot;&gt;Q&lt;/span&gt;" style="text;html=1;align=center;verticalAlign=middle;whiteSpace=wrap;rounded=0;fontFamily=Helvetica;fontSize=12;fontColor=default;" vertex="1" parent="1">
          <mxGeometry x="612.5" y="667" width="15" height="7.5" as="geometry" />
        </mxCell>
        <mxCell id="Gw7uP9N_sIeIxdFlUJaT-90" value="&lt;font style=&quot;font-size: 9px;&quot;&gt;V&lt;/font&gt;" style="text;html=1;align=center;verticalAlign=middle;whiteSpace=wrap;rounded=0;fontFamily=Helvetica;fontSize=12;fontColor=default;" vertex="1" parent="1">
          <mxGeometry x="711" y="792" width="15" height="7.5" as="geometry" />
        </mxCell>
        <mxCell id="Gw7uP9N_sIeIxdFlUJaT-91" value="&lt;font style=&quot;font-size: 9px;&quot;&gt;K&lt;/font&gt;" style="text;html=1;align=center;verticalAlign=middle;whiteSpace=wrap;rounded=0;fontFamily=Helvetica;fontSize=12;fontColor=default;" vertex="1" parent="1">
          <mxGeometry x="711" y="805.5" width="15" height="7.5" as="geometry" />
        </mxCell>
        <mxCell id="Gw7uP9N_sIeIxdFlUJaT-92" value="&lt;span style=&quot;font-size: 9px;&quot;&gt;Q&lt;/span&gt;" style="text;html=1;align=center;verticalAlign=middle;whiteSpace=wrap;rounded=0;fontFamily=Helvetica;fontSize=12;fontColor=default;" vertex="1" parent="1">
          <mxGeometry x="711" y="817" width="15" height="7.5" as="geometry" />
        </mxCell>
        <mxCell id="Gw7uP9N_sIeIxdFlUJaT-93" value="&lt;font style=&quot;font-size: 9px;&quot;&gt;V&lt;/font&gt;" style="text;html=1;align=center;verticalAlign=middle;whiteSpace=wrap;rounded=0;fontFamily=Helvetica;fontSize=12;fontColor=default;" vertex="1" parent="1">
          <mxGeometry x="819" y="962" width="15" height="7.5" as="geometry" />
        </mxCell>
        <mxCell id="Gw7uP9N_sIeIxdFlUJaT-94" value="&lt;font style=&quot;font-size: 9px;&quot;&gt;K&lt;/font&gt;" style="text;html=1;align=center;verticalAlign=middle;whiteSpace=wrap;rounded=0;fontFamily=Helvetica;fontSize=12;fontColor=default;" vertex="1" parent="1">
          <mxGeometry x="819" y="975.5" width="15" height="7.5" as="geometry" />
        </mxCell>
        <mxCell id="Gw7uP9N_sIeIxdFlUJaT-95" value="&lt;span style=&quot;font-size: 9px;&quot;&gt;Q&lt;/span&gt;" style="text;html=1;align=center;verticalAlign=middle;whiteSpace=wrap;rounded=0;fontFamily=Helvetica;fontSize=12;fontColor=default;" vertex="1" parent="1">
          <mxGeometry x="819" y="987" width="15" height="7.5" as="geometry" />
        </mxCell>
        <mxCell id="Gw7uP9N_sIeIxdFlUJaT-96" value="&lt;font style=&quot;font-size: 9px;&quot;&gt;V&lt;/font&gt;" style="text;html=1;align=center;verticalAlign=middle;whiteSpace=wrap;rounded=0;fontFamily=Helvetica;fontSize=12;fontColor=default;" vertex="1" parent="1">
          <mxGeometry x="540" y="483" width="15" height="7.5" as="geometry" />
        </mxCell>
        <mxCell id="Gw7uP9N_sIeIxdFlUJaT-97" value="&lt;font style=&quot;font-size: 9px;&quot;&gt;K&lt;/font&gt;" style="text;html=1;align=center;verticalAlign=middle;whiteSpace=wrap;rounded=0;fontFamily=Helvetica;fontSize=12;fontColor=default;" vertex="1" parent="1">
          <mxGeometry x="540" y="496.5" width="15" height="7.5" as="geometry" />
        </mxCell>
        <mxCell id="Gw7uP9N_sIeIxdFlUJaT-98" value="&lt;span style=&quot;font-size: 9px;&quot;&gt;Q&lt;/span&gt;" style="text;html=1;align=center;verticalAlign=middle;whiteSpace=wrap;rounded=0;fontFamily=Helvetica;fontSize=12;fontColor=default;" vertex="1" parent="1">
          <mxGeometry x="540" y="508" width="15" height="7.5" as="geometry" />
        </mxCell>
        <mxCell id="Gw7uP9N_sIeIxdFlUJaT-99" value="&lt;font style=&quot;font-size: 9px;&quot;&gt;V&lt;/font&gt;" style="text;html=1;align=center;verticalAlign=middle;whiteSpace=wrap;rounded=0;fontFamily=Helvetica;fontSize=12;fontColor=default;" vertex="1" parent="1">
          <mxGeometry x="1432" y="796.75" width="15" height="7.5" as="geometry" />
        </mxCell>
        <mxCell id="Gw7uP9N_sIeIxdFlUJaT-100" value="&lt;font style=&quot;font-size: 9px;&quot;&gt;K&lt;/font&gt;" style="text;html=1;align=center;verticalAlign=middle;whiteSpace=wrap;rounded=0;fontFamily=Helvetica;fontSize=12;fontColor=default;" vertex="1" parent="1">
          <mxGeometry x="1432" y="810.25" width="15" height="7.5" as="geometry" />
        </mxCell>
        <mxCell id="Gw7uP9N_sIeIxdFlUJaT-101" value="&lt;span style=&quot;font-size: 9px;&quot;&gt;Q&lt;/span&gt;" style="text;html=1;align=center;verticalAlign=middle;whiteSpace=wrap;rounded=0;fontFamily=Helvetica;fontSize=12;fontColor=default;" vertex="1" parent="1">
          <mxGeometry x="1432" y="821.75" width="15" height="7.5" as="geometry" />
        </mxCell>
        <mxCell id="Gw7uP9N_sIeIxdFlUJaT-106" style="edgeStyle=orthogonalEdgeStyle;rounded=0;orthogonalLoop=1;jettySize=auto;html=1;exitX=1;exitY=0.5;exitDx=0;exitDy=0;entryX=0;entryY=0.75;entryDx=0;entryDy=0;fontFamily=Helvetica;fontSize=12;fontColor=default;" edge="1" parent="1" source="Gw7uP9N_sIeIxdFlUJaT-102" target="Gw7uP9N_sIeIxdFlUJaT-105">
          <mxGeometry relative="1" as="geometry" />
        </mxCell>
        <mxCell id="Gw7uP9N_sIeIxdFlUJaT-102" value="&lt;font style=&quot;font-size: 15px;&quot;&gt;AutoCorrelation：B×(S/2)×D&lt;/font&gt;&lt;div&gt;&lt;font style=&quot;font-size: 15px;&quot;&gt;out： 32×512×12&lt;/font&gt;&lt;/div&gt;" style="rounded=1;whiteSpace=wrap;html=1;" vertex="1" parent="1">
          <mxGeometry x="1720" y="640" width="200" height="50" as="geometry" />
        </mxCell>
        <mxCell id="Gw7uP9N_sIeIxdFlUJaT-118" style="edgeStyle=orthogonalEdgeStyle;rounded=0;orthogonalLoop=1;jettySize=auto;html=1;exitX=1;exitY=0.5;exitDx=0;exitDy=0;entryX=0;entryY=0.5;entryDx=0;entryDy=0;fontFamily=Helvetica;fontSize=12;fontColor=default;" edge="1" parent="1" source="Gw7uP9N_sIeIxdFlUJaT-105" target="Gw7uP9N_sIeIxdFlUJaT-116">
          <mxGeometry relative="1" as="geometry" />
        </mxCell>
        <mxCell id="Gw7uP9N_sIeIxdFlUJaT-105" value="&lt;font style=&quot;font-size: 15px;&quot;&gt;AutoCorrelation：B×S×D&lt;/font&gt;&lt;div&gt;&lt;font style=&quot;font-size: 15px;&quot;&gt;out： 32×512×96&lt;/font&gt;&lt;/div&gt;" style="rounded=1;whiteSpace=wrap;html=1;" vertex="1" parent="1">
          <mxGeometry x="2000" y="480" width="190" height="50" as="geometry" />
        </mxCell>
        <mxCell id="Gw7uP9N_sIeIxdFlUJaT-18" style="edgeStyle=orthogonalEdgeStyle;rounded=0;orthogonalLoop=1;jettySize=auto;html=1;exitX=1;exitY=0.5;exitDx=0;exitDy=0;entryX=0;entryY=0.5;entryDx=0;entryDy=0;fontFamily=Helvetica;fontSize=12;fontColor=default;" edge="1" parent="1" source="Gw7uP9N_sIeIxdFlUJaT-19" target="Gw7uP9N_sIeIxdFlUJaT-22">
          <mxGeometry relative="1" as="geometry" />
        </mxCell>
        <mxCell id="Gw7uP9N_sIeIxdFlUJaT-19" value="&lt;font style=&quot;font-size: 15px;&quot;&gt;AutoCorrelation：B×S×D&lt;/font&gt;&lt;div&gt;&lt;font style=&quot;font-size: 15px;&quot;&gt;out： 32×521×96&lt;/font&gt;&lt;/div&gt;" style="rounded=1;whiteSpace=wrap;html=1;" vertex="1" parent="1">
          <mxGeometry x="570" y="480" width="190" height="50" as="geometry" />
        </mxCell>
        <mxCell id="Gw7uP9N_sIeIxdFlUJaT-20" style="edgeStyle=orthogonalEdgeStyle;rounded=0;orthogonalLoop=1;jettySize=auto;html=1;exitX=1;exitY=0.5;exitDx=0;exitDy=0;entryX=0;entryY=0.5;entryDx=0;entryDy=0;fontFamily=Helvetica;fontSize=12;fontColor=default;" edge="1" parent="1" source="Gw7uP9N_sIeIxdFlUJaT-22" target="Gw7uP9N_sIeIxdFlUJaT-24">
          <mxGeometry relative="1" as="geometry" />
        </mxCell>
        <mxCell id="Gw7uP9N_sIeIxdFlUJaT-21" style="edgeStyle=orthogonalEdgeStyle;rounded=0;orthogonalLoop=1;jettySize=auto;html=1;exitX=1;exitY=0.5;exitDx=0;exitDy=0;entryX=0.5;entryY=0;entryDx=0;entryDy=0;fontFamily=Helvetica;fontSize=12;fontColor=default;" edge="1" parent="1" source="Gw7uP9N_sIeIxdFlUJaT-22" target="Gw7uP9N_sIeIxdFlUJaT-26">
          <mxGeometry relative="1" as="geometry">
            <Array as="points">
              <mxPoint x="1070" y="505" />
              <mxPoint x="1070" y="460" />
              <mxPoint x="1433" y="460" />
            </Array>
          </mxGeometry>
        </mxCell>
        <mxCell id="Gw7uP9N_sIeIxdFlUJaT-22" value="" style="shape=orEllipse;perimeter=ellipsePerimeter;whiteSpace=wrap;html=1;backgroundOutline=1;rounded=1;strokeColor=default;align=center;verticalAlign=middle;fontFamily=Helvetica;fontSize=12;fontColor=default;fillColor=default;" vertex="1" parent="1">
          <mxGeometry x="800" y="492.5" width="25" height="25" as="geometry" />
        </mxCell>
        <mxCell id="Gw7uP9N_sIeIxdFlUJaT-23" style="edgeStyle=orthogonalEdgeStyle;rounded=0;orthogonalLoop=1;jettySize=auto;html=1;exitX=1;exitY=0.5;exitDx=0;exitDy=0;entryX=0;entryY=0.5;entryDx=0;entryDy=0;fontFamily=Helvetica;fontSize=12;fontColor=default;" edge="1" parent="1" source="Gw7uP9N_sIeIxdFlUJaT-24" target="Gw7uP9N_sIeIxdFlUJaT-26">
          <mxGeometry relative="1" as="geometry" />
        </mxCell>
        <mxCell id="Gw7uP9N_sIeIxdFlUJaT-24" value="&lt;font style=&quot;font-size: 15px;&quot;&gt;GRU：B×S×D&lt;/font&gt;&lt;div&gt;&lt;font style=&quot;font-size: 15px;&quot;&gt;如 1×521×96&lt;/font&gt;&lt;/div&gt;" style="rounded=1;whiteSpace=wrap;html=1;" vertex="1" parent="1">
          <mxGeometry x="1260" y="485" width="120" height="40" as="geometry" />
        </mxCell>
        <mxCell id="Gw7uP9N_sIeIxdFlUJaT-25" style="edgeStyle=orthogonalEdgeStyle;rounded=0;orthogonalLoop=1;jettySize=auto;html=1;exitX=1;exitY=0.5;exitDx=0;exitDy=0;fontFamily=Helvetica;fontSize=12;fontColor=default;entryX=0;entryY=0.5;entryDx=0;entryDy=0;" edge="1" parent="1" source="Gw7uP9N_sIeIxdFlUJaT-26" target="Gw7uP9N_sIeIxdFlUJaT-105">
          <mxGeometry relative="1" as="geometry">
            <mxPoint x="1110" y="504.66666666666674" as="targetPoint" />
          </mxGeometry>
        </mxCell>
        <mxCell id="Gw7uP9N_sIeIxdFlUJaT-107" style="edgeStyle=orthogonalEdgeStyle;rounded=0;orthogonalLoop=1;jettySize=auto;html=1;exitX=1;exitY=0.5;exitDx=0;exitDy=0;entryX=0;entryY=0.25;entryDx=0;entryDy=0;fontFamily=Helvetica;fontSize=12;fontColor=default;" edge="1" parent="1" source="Gw7uP9N_sIeIxdFlUJaT-26" target="Gw7uP9N_sIeIxdFlUJaT-105">
          <mxGeometry relative="1" as="geometry">
            <Array as="points">
              <mxPoint x="1960" y="505" />
              <mxPoint x="1960" y="493" />
            </Array>
          </mxGeometry>
        </mxCell>
        <mxCell id="Gw7uP9N_sIeIxdFlUJaT-26" value="" style="shape=orEllipse;perimeter=ellipsePerimeter;whiteSpace=wrap;html=1;backgroundOutline=1;rounded=1;strokeColor=default;align=center;verticalAlign=middle;fontFamily=Helvetica;fontSize=12;fontColor=default;fillColor=default;" vertex="1" parent="1">
          <mxGeometry x="1420" y="492.5" width="25" height="25" as="geometry" />
        </mxCell>
        <mxCell id="Gw7uP9N_sIeIxdFlUJaT-108" value="&lt;font style=&quot;font-size: 9px;&quot;&gt;V&lt;/font&gt;" style="text;html=1;align=center;verticalAlign=middle;whiteSpace=wrap;rounded=0;fontFamily=Helvetica;fontSize=12;fontColor=default;" vertex="1" parent="1">
          <mxGeometry x="1694" y="642" width="15" height="7.5" as="geometry" />
        </mxCell>
        <mxCell id="Gw7uP9N_sIeIxdFlUJaT-109" value="&lt;font style=&quot;font-size: 9px;&quot;&gt;K&lt;/font&gt;" style="text;html=1;align=center;verticalAlign=middle;whiteSpace=wrap;rounded=0;fontFamily=Helvetica;fontSize=12;fontColor=default;" vertex="1" parent="1">
          <mxGeometry x="1694" y="655.5" width="15" height="7.5" as="geometry" />
        </mxCell>
        <mxCell id="Gw7uP9N_sIeIxdFlUJaT-110" value="&lt;span style=&quot;font-size: 9px;&quot;&gt;Q&lt;/span&gt;" style="text;html=1;align=center;verticalAlign=middle;whiteSpace=wrap;rounded=0;fontFamily=Helvetica;fontSize=12;fontColor=default;" vertex="1" parent="1">
          <mxGeometry x="1694" y="667" width="15" height="7.5" as="geometry" />
        </mxCell>
        <mxCell id="Gw7uP9N_sIeIxdFlUJaT-111" value="&lt;font style=&quot;font-size: 9px;&quot;&gt;V&lt;/font&gt;" style="text;html=1;align=center;verticalAlign=middle;whiteSpace=wrap;rounded=0;fontFamily=Helvetica;fontSize=12;fontColor=default;" vertex="1" parent="1">
          <mxGeometry x="1970" y="482" width="15" height="7.5" as="geometry" />
        </mxCell>
        <mxCell id="Gw7uP9N_sIeIxdFlUJaT-112" value="&lt;font style=&quot;font-size: 9px;&quot;&gt;K&lt;/font&gt;" style="text;html=1;align=center;verticalAlign=middle;whiteSpace=wrap;rounded=0;fontFamily=Helvetica;fontSize=12;fontColor=default;" vertex="1" parent="1">
          <mxGeometry x="1970" y="495.5" width="15" height="7.5" as="geometry" />
        </mxCell>
        <mxCell id="Gw7uP9N_sIeIxdFlUJaT-113" value="&lt;span style=&quot;font-size: 9px;&quot;&gt;Q&lt;/span&gt;" style="text;html=1;align=center;verticalAlign=middle;whiteSpace=wrap;rounded=0;fontFamily=Helvetica;fontSize=12;fontColor=default;" vertex="1" parent="1">
          <mxGeometry x="1970" y="507" width="15" height="7.5" as="geometry" />
        </mxCell>
        <mxCell id="Gw7uP9N_sIeIxdFlUJaT-116" value="&lt;font style=&quot;font-size: 15px;&quot;&gt;FFN：B×(pred_len)×D&lt;/font&gt;&lt;div&gt;&lt;font style=&quot;font-size: 15px;&quot;&gt;out： 32×720×321&lt;/font&gt;&lt;/div&gt;" style="rounded=1;whiteSpace=wrap;html=1;" vertex="1" parent="1">
          <mxGeometry x="2250" y="480" width="190" height="50" as="geometry" />
        </mxCell>
        <mxCell id="ClepvOl01wnn0GGwb7TB-1" value="&lt;b style=&quot;color: light-dark(rgb(0, 0, 0), rgb(237, 237, 237));&quot;&gt;MaxPool+AvgPool&lt;/b&gt;" style="text;html=1;align=center;verticalAlign=middle;whiteSpace=wrap;rounded=0;fontFamily=Helvetica;fontSize=12;fontColor=default;" vertex="1" parent="1">
          <mxGeometry x="294" y="430" width="120" height="30" as="geometry" />
        </mxCell>
      </root>
    </mxGraphModel>
  </diagram>
  <diagram id="HyeFWyucLhSeiIUQlEii" name="第 2 页">
    <mxGraphModel dx="654" dy="450" grid="1" gridSize="10" guides="1" tooltips="1" connect="1" arrows="1" fold="1" page="1" pageScale="1" pageWidth="827" pageHeight="1169" math="0" shadow="0">
      <root>
        <mxCell id="0" />
        <mxCell id="1" parent="0" />
        <mxCell id="hHaVew3OzkUkbx7VyQ1x-1" style="edgeStyle=orthogonalEdgeStyle;rounded=0;orthogonalLoop=1;jettySize=auto;html=1;exitX=0.5;exitY=1;exitDx=0;exitDy=0;entryX=0.5;entryY=0;entryDx=0;entryDy=0;fontFamily=Helvetica;fontSize=12;fontColor=default;" edge="1" parent="1" source="hHaVew3OzkUkbx7VyQ1x-2" target="hHaVew3OzkUkbx7VyQ1x-4">
          <mxGeometry relative="1" as="geometry" />
        </mxCell>
        <mxCell id="hHaVew3OzkUkbx7VyQ1x-2" value="&lt;font style=&quot;font-size: 15px;&quot;&gt;输入：B×S×D&lt;/font&gt;&lt;div&gt;&lt;font style=&quot;font-size: 15px;&quot;&gt;如 32×96×321&lt;/font&gt;&lt;/div&gt;" style="rounded=1;whiteSpace=wrap;html=1;" vertex="1" parent="1">
          <mxGeometry x="230" y="290" width="120" height="40" as="geometry" />
        </mxCell>
        <mxCell id="hHaVew3OzkUkbx7VyQ1x-3" style="edgeStyle=orthogonalEdgeStyle;rounded=0;orthogonalLoop=1;jettySize=auto;html=1;exitX=0.5;exitY=1;exitDx=0;exitDy=0;entryX=0.5;entryY=0;entryDx=0;entryDy=0;fontFamily=Helvetica;fontSize=12;fontColor=default;" edge="1" parent="1" source="hHaVew3OzkUkbx7VyQ1x-4" target="hHaVew3OzkUkbx7VyQ1x-10">
          <mxGeometry relative="1" as="geometry" />
        </mxCell>
        <mxCell id="hHaVew3OzkUkbx7VyQ1x-4" value="&lt;font style=&quot;font-size: 15px;&quot;&gt;特征嵌入：B×S×model_dim&lt;/font&gt;&lt;div&gt;&lt;font style=&quot;font-size: 15px;&quot;&gt;如 32×96×521&lt;/font&gt;&lt;/div&gt;" style="rounded=1;whiteSpace=wrap;html=1;" vertex="1" parent="1">
          <mxGeometry x="180" y="380" width="220" height="50" as="geometry" />
        </mxCell>
        <mxCell id="hHaVew3OzkUkbx7VyQ1x-5" style="edgeStyle=orthogonalEdgeStyle;rounded=0;orthogonalLoop=1;jettySize=auto;html=1;exitX=0.5;exitY=1;exitDx=0;exitDy=0;entryX=0.5;entryY=0;entryDx=0;entryDy=0;fontFamily=Helvetica;fontSize=12;fontColor=default;" edge="1" parent="1" source="hHaVew3OzkUkbx7VyQ1x-10" target="hHaVew3OzkUkbx7VyQ1x-16">
          <mxGeometry relative="1" as="geometry" />
        </mxCell>
        <mxCell id="hHaVew3OzkUkbx7VyQ1x-6" style="edgeStyle=orthogonalEdgeStyle;rounded=0;orthogonalLoop=1;jettySize=auto;html=1;exitX=1;exitY=0.5;exitDx=0;exitDy=0;entryX=0;entryY=0.5;entryDx=0;entryDy=0;fontFamily=Helvetica;fontSize=12;fontColor=default;" edge="1" parent="1" source="hHaVew3OzkUkbx7VyQ1x-10" target="hHaVew3OzkUkbx7VyQ1x-82">
          <mxGeometry relative="1" as="geometry" />
        </mxCell>
        <mxCell id="hHaVew3OzkUkbx7VyQ1x-7" style="edgeStyle=orthogonalEdgeStyle;rounded=0;orthogonalLoop=1;jettySize=auto;html=1;exitX=1;exitY=0.5;exitDx=0;exitDy=0;entryX=0;entryY=0.25;entryDx=0;entryDy=0;fontFamily=Helvetica;fontSize=12;fontColor=default;movable=0;resizable=0;rotatable=0;deletable=0;editable=0;locked=1;connectable=0;" edge="1" parent="1" source="hHaVew3OzkUkbx7VyQ1x-10" target="hHaVew3OzkUkbx7VyQ1x-82">
          <mxGeometry relative="1" as="geometry">
            <Array as="points">
              <mxPoint x="530" y="505" />
              <mxPoint x="530" y="493" />
            </Array>
          </mxGeometry>
        </mxCell>
        <mxCell id="hHaVew3OzkUkbx7VyQ1x-8" style="edgeStyle=orthogonalEdgeStyle;rounded=0;orthogonalLoop=1;jettySize=auto;html=1;exitX=1;exitY=0.5;exitDx=0;exitDy=0;entryX=0;entryY=0.75;entryDx=0;entryDy=0;fontFamily=Helvetica;fontSize=12;fontColor=default;movable=0;resizable=0;rotatable=0;deletable=0;editable=0;locked=1;connectable=0;" edge="1" parent="1" source="hHaVew3OzkUkbx7VyQ1x-10" target="hHaVew3OzkUkbx7VyQ1x-82">
          <mxGeometry relative="1" as="geometry">
            <Array as="points">
              <mxPoint x="530" y="505" />
              <mxPoint x="530" y="517" />
            </Array>
          </mxGeometry>
        </mxCell>
        <mxCell id="hHaVew3OzkUkbx7VyQ1x-9" style="edgeStyle=orthogonalEdgeStyle;rounded=0;orthogonalLoop=1;jettySize=auto;html=1;exitX=1;exitY=0.5;exitDx=0;exitDy=0;entryX=0.5;entryY=0;entryDx=0;entryDy=0;fontFamily=Helvetica;fontSize=12;fontColor=default;" edge="1" parent="1" source="hHaVew3OzkUkbx7VyQ1x-10" target="hHaVew3OzkUkbx7VyQ1x-85">
          <mxGeometry relative="1" as="geometry">
            <Array as="points">
              <mxPoint x="510" y="505" />
              <mxPoint x="510" y="460" />
              <mxPoint x="813" y="460" />
            </Array>
          </mxGeometry>
        </mxCell>
        <mxCell id="hHaVew3OzkUkbx7VyQ1x-10" value="&lt;font style=&quot;font-size: 15px;&quot;&gt;permute：B×model_dim&lt;/font&gt;&lt;span style=&quot;font-size: 15px;&quot;&gt;×S&lt;/span&gt;&lt;div&gt;&lt;font style=&quot;font-size: 15px;&quot;&gt;如 32×521×96&lt;/font&gt;&lt;/div&gt;" style="rounded=1;whiteSpace=wrap;html=1;" vertex="1" parent="1">
          <mxGeometry x="260" y="480" width="220" height="50" as="geometry" />
        </mxCell>
        <mxCell id="hHaVew3OzkUkbx7VyQ1x-11" style="edgeStyle=orthogonalEdgeStyle;rounded=0;orthogonalLoop=1;jettySize=auto;html=1;exitX=0.5;exitY=1;exitDx=0;exitDy=0;fontFamily=Helvetica;fontSize=12;fontColor=default;" edge="1" parent="1" source="hHaVew3OzkUkbx7VyQ1x-16" target="hHaVew3OzkUkbx7VyQ1x-22">
          <mxGeometry relative="1" as="geometry" />
        </mxCell>
        <mxCell id="hHaVew3OzkUkbx7VyQ1x-12" style="edgeStyle=orthogonalEdgeStyle;rounded=0;orthogonalLoop=1;jettySize=auto;html=1;exitX=1;exitY=0.5;exitDx=0;exitDy=0;entryX=0;entryY=0.5;entryDx=0;entryDy=0;fontFamily=Helvetica;fontSize=12;fontColor=default;" edge="1" parent="1" source="hHaVew3OzkUkbx7VyQ1x-16" target="hHaVew3OzkUkbx7VyQ1x-29">
          <mxGeometry relative="1" as="geometry" />
        </mxCell>
        <mxCell id="hHaVew3OzkUkbx7VyQ1x-13" style="edgeStyle=orthogonalEdgeStyle;rounded=0;orthogonalLoop=1;jettySize=auto;html=1;exitX=1;exitY=0.5;exitDx=0;exitDy=0;entryX=0.5;entryY=0;entryDx=0;entryDy=0;fontFamily=Helvetica;fontSize=12;fontColor=default;" edge="1" parent="1" source="hHaVew3OzkUkbx7VyQ1x-16" target="hHaVew3OzkUkbx7VyQ1x-32">
          <mxGeometry relative="1" as="geometry">
            <Array as="points">
              <mxPoint x="590" y="665" />
              <mxPoint x="590" y="620" />
              <mxPoint x="913" y="620" />
            </Array>
          </mxGeometry>
        </mxCell>
        <mxCell id="hHaVew3OzkUkbx7VyQ1x-14" style="edgeStyle=orthogonalEdgeStyle;rounded=0;orthogonalLoop=1;jettySize=auto;html=1;exitX=1;exitY=0.5;exitDx=0;exitDy=0;entryX=0;entryY=0.25;entryDx=0;entryDy=0;fontFamily=Helvetica;fontSize=12;fontColor=default;" edge="1" parent="1" source="hHaVew3OzkUkbx7VyQ1x-16" target="hHaVew3OzkUkbx7VyQ1x-29">
          <mxGeometry relative="1" as="geometry" />
        </mxCell>
        <mxCell id="hHaVew3OzkUkbx7VyQ1x-15" style="edgeStyle=orthogonalEdgeStyle;rounded=0;orthogonalLoop=1;jettySize=auto;html=1;exitX=1;exitY=0.5;exitDx=0;exitDy=0;entryX=0;entryY=0.75;entryDx=0;entryDy=0;fontFamily=Helvetica;fontSize=12;fontColor=default;" edge="1" parent="1" source="hHaVew3OzkUkbx7VyQ1x-16" target="hHaVew3OzkUkbx7VyQ1x-29">
          <mxGeometry relative="1" as="geometry" />
        </mxCell>
        <mxCell id="hHaVew3OzkUkbx7VyQ1x-16" value="&lt;font style=&quot;font-size: 15px;&quot;&gt;permute：B×model_dim&lt;/font&gt;&lt;span style=&quot;font-size: 15px;&quot;&gt;×(S/2)&lt;/span&gt;&lt;div&gt;&lt;font style=&quot;font-size: 15px;&quot;&gt;如 32×521×48&lt;/font&gt;&lt;/div&gt;" style="rounded=1;whiteSpace=wrap;html=1;" vertex="1" parent="1">
          <mxGeometry x="350" y="640" width="220" height="50" as="geometry" />
        </mxCell>
        <mxCell id="hHaVew3OzkUkbx7VyQ1x-17" style="edgeStyle=orthogonalEdgeStyle;rounded=0;orthogonalLoop=1;jettySize=auto;html=1;exitX=0.5;exitY=1;exitDx=0;exitDy=0;entryX=0.5;entryY=0;entryDx=0;entryDy=0;fontFamily=Helvetica;fontSize=12;fontColor=default;" edge="1" parent="1" source="hHaVew3OzkUkbx7VyQ1x-22" target="hHaVew3OzkUkbx7VyQ1x-27">
          <mxGeometry relative="1" as="geometry" />
        </mxCell>
        <mxCell id="hHaVew3OzkUkbx7VyQ1x-18" style="edgeStyle=orthogonalEdgeStyle;rounded=0;orthogonalLoop=1;jettySize=auto;html=1;exitX=1;exitY=0.5;exitDx=0;exitDy=0;fontFamily=Helvetica;fontSize=12;fontColor=default;" edge="1" parent="1" source="hHaVew3OzkUkbx7VyQ1x-22" target="hHaVew3OzkUkbx7VyQ1x-39">
          <mxGeometry relative="1" as="geometry" />
        </mxCell>
        <mxCell id="hHaVew3OzkUkbx7VyQ1x-19" style="edgeStyle=orthogonalEdgeStyle;rounded=0;orthogonalLoop=1;jettySize=auto;html=1;exitX=1;exitY=0.5;exitDx=0;exitDy=0;entryX=0.5;entryY=0;entryDx=0;entryDy=0;fontFamily=Helvetica;fontSize=12;fontColor=default;" edge="1" parent="1" source="hHaVew3OzkUkbx7VyQ1x-22" target="hHaVew3OzkUkbx7VyQ1x-42">
          <mxGeometry relative="1" as="geometry">
            <Array as="points">
              <mxPoint x="680" y="815" />
              <mxPoint x="680" y="770" />
              <mxPoint x="1003" y="770" />
            </Array>
          </mxGeometry>
        </mxCell>
        <mxCell id="hHaVew3OzkUkbx7VyQ1x-20" style="edgeStyle=orthogonalEdgeStyle;rounded=0;orthogonalLoop=1;jettySize=auto;html=1;exitX=1;exitY=0.5;exitDx=0;exitDy=0;entryX=0;entryY=0.25;entryDx=0;entryDy=0;fontFamily=Helvetica;fontSize=12;fontColor=default;" edge="1" parent="1" source="hHaVew3OzkUkbx7VyQ1x-22" target="hHaVew3OzkUkbx7VyQ1x-39">
          <mxGeometry relative="1" as="geometry" />
        </mxCell>
        <mxCell id="hHaVew3OzkUkbx7VyQ1x-21" style="edgeStyle=orthogonalEdgeStyle;rounded=0;orthogonalLoop=1;jettySize=auto;html=1;exitX=1;exitY=0.5;exitDx=0;exitDy=0;entryX=0;entryY=0.75;entryDx=0;entryDy=0;fontFamily=Helvetica;fontSize=12;fontColor=default;" edge="1" parent="1" source="hHaVew3OzkUkbx7VyQ1x-22" target="hHaVew3OzkUkbx7VyQ1x-39">
          <mxGeometry relative="1" as="geometry" />
        </mxCell>
        <mxCell id="hHaVew3OzkUkbx7VyQ1x-22" value="&lt;font style=&quot;font-size: 15px;&quot;&gt;permute：B×model_dim&lt;/font&gt;&lt;span style=&quot;font-size: 15px;&quot;&gt;×(S/4)&lt;/span&gt;&lt;div&gt;&lt;font style=&quot;font-size: 15px;&quot;&gt;如 32×521×24&lt;/font&gt;&lt;/div&gt;" style="rounded=1;whiteSpace=wrap;html=1;" vertex="1" parent="1">
          <mxGeometry x="424" y="790" width="220" height="50" as="geometry" />
        </mxCell>
        <mxCell id="hHaVew3OzkUkbx7VyQ1x-23" style="edgeStyle=orthogonalEdgeStyle;rounded=0;orthogonalLoop=1;jettySize=auto;html=1;exitX=1;exitY=0.5;exitDx=0;exitDy=0;entryX=0;entryY=0.5;entryDx=0;entryDy=0;fontFamily=Helvetica;fontSize=12;fontColor=default;" edge="1" parent="1" source="hHaVew3OzkUkbx7VyQ1x-27" target="hHaVew3OzkUkbx7VyQ1x-49">
          <mxGeometry relative="1" as="geometry" />
        </mxCell>
        <mxCell id="hHaVew3OzkUkbx7VyQ1x-24" style="edgeStyle=orthogonalEdgeStyle;rounded=0;orthogonalLoop=1;jettySize=auto;html=1;exitX=1;exitY=0.5;exitDx=0;exitDy=0;entryX=0.5;entryY=0;entryDx=0;entryDy=0;fontFamily=Helvetica;fontSize=12;fontColor=default;" edge="1" parent="1" source="hHaVew3OzkUkbx7VyQ1x-27" target="hHaVew3OzkUkbx7VyQ1x-52">
          <mxGeometry relative="1" as="geometry">
            <Array as="points">
              <mxPoint x="780" y="985" />
              <mxPoint x="780" y="940" />
              <mxPoint x="1103" y="940" />
            </Array>
          </mxGeometry>
        </mxCell>
        <mxCell id="hHaVew3OzkUkbx7VyQ1x-25" style="edgeStyle=orthogonalEdgeStyle;rounded=0;orthogonalLoop=1;jettySize=auto;html=1;exitX=1;exitY=0.5;exitDx=0;exitDy=0;entryX=0;entryY=0.25;entryDx=0;entryDy=0;fontFamily=Helvetica;fontSize=12;fontColor=default;" edge="1" parent="1" source="hHaVew3OzkUkbx7VyQ1x-27" target="hHaVew3OzkUkbx7VyQ1x-49">
          <mxGeometry relative="1" as="geometry" />
        </mxCell>
        <mxCell id="hHaVew3OzkUkbx7VyQ1x-26" style="edgeStyle=orthogonalEdgeStyle;rounded=0;orthogonalLoop=1;jettySize=auto;html=1;exitX=1;exitY=0.5;exitDx=0;exitDy=0;entryX=0;entryY=0.75;entryDx=0;entryDy=0;fontFamily=Helvetica;fontSize=12;fontColor=default;" edge="1" parent="1" source="hHaVew3OzkUkbx7VyQ1x-27" target="hHaVew3OzkUkbx7VyQ1x-49">
          <mxGeometry relative="1" as="geometry" />
        </mxCell>
        <mxCell id="hHaVew3OzkUkbx7VyQ1x-27" value="&lt;font style=&quot;font-size: 15px;&quot;&gt;permute：B×model_dim&lt;/font&gt;&lt;span style=&quot;font-size: 15px;&quot;&gt;×(S/8)&lt;/span&gt;&lt;div&gt;&lt;font style=&quot;font-size: 15px;&quot;&gt;如 32×521×12&lt;/font&gt;&lt;/div&gt;" style="rounded=1;whiteSpace=wrap;html=1;" vertex="1" parent="1">
          <mxGeometry x="540" y="960" width="220" height="50" as="geometry" />
        </mxCell>
        <mxCell id="hHaVew3OzkUkbx7VyQ1x-28" style="edgeStyle=orthogonalEdgeStyle;rounded=0;orthogonalLoop=1;jettySize=auto;html=1;exitX=1;exitY=0.5;exitDx=0;exitDy=0;entryX=0;entryY=0.5;entryDx=0;entryDy=0;fontFamily=Helvetica;fontSize=12;fontColor=default;" edge="1" parent="1" source="hHaVew3OzkUkbx7VyQ1x-29" target="hHaVew3OzkUkbx7VyQ1x-32">
          <mxGeometry relative="1" as="geometry" />
        </mxCell>
        <mxCell id="hHaVew3OzkUkbx7VyQ1x-29" value="&lt;font style=&quot;font-size: 15px;&quot;&gt;AutoCorrelation：B×(S/2)×D&lt;/font&gt;&lt;div&gt;&lt;font style=&quot;font-size: 15px;&quot;&gt;out： 32×521×48&lt;/font&gt;&lt;/div&gt;" style="rounded=1;whiteSpace=wrap;html=1;" vertex="1" parent="1">
          <mxGeometry x="644" y="640" width="206" height="50" as="geometry" />
        </mxCell>
        <mxCell id="hHaVew3OzkUkbx7VyQ1x-30" style="edgeStyle=orthogonalEdgeStyle;rounded=0;orthogonalLoop=1;jettySize=auto;html=1;exitX=1;exitY=0.5;exitDx=0;exitDy=0;entryX=0;entryY=0.5;entryDx=0;entryDy=0;fontFamily=Helvetica;fontSize=12;fontColor=default;" edge="1" parent="1" source="hHaVew3OzkUkbx7VyQ1x-32" target="hHaVew3OzkUkbx7VyQ1x-34">
          <mxGeometry relative="1" as="geometry" />
        </mxCell>
        <mxCell id="hHaVew3OzkUkbx7VyQ1x-31" style="edgeStyle=orthogonalEdgeStyle;rounded=0;orthogonalLoop=1;jettySize=auto;html=1;exitX=1;exitY=0.5;exitDx=0;exitDy=0;entryX=0.5;entryY=0;entryDx=0;entryDy=0;fontFamily=Helvetica;fontSize=12;fontColor=default;" edge="1" parent="1" source="hHaVew3OzkUkbx7VyQ1x-32" target="hHaVew3OzkUkbx7VyQ1x-37">
          <mxGeometry relative="1" as="geometry">
            <Array as="points">
              <mxPoint x="1070" y="665" />
              <mxPoint x="1070" y="633" />
              <mxPoint x="1420" y="633" />
            </Array>
          </mxGeometry>
        </mxCell>
        <mxCell id="hHaVew3OzkUkbx7VyQ1x-32" value="" style="shape=orEllipse;perimeter=ellipsePerimeter;whiteSpace=wrap;html=1;backgroundOutline=1;rounded=1;strokeColor=default;align=center;verticalAlign=middle;fontFamily=Helvetica;fontSize=12;fontColor=default;fillColor=default;" vertex="1" parent="1">
          <mxGeometry x="900" y="652.5" width="25" height="25" as="geometry" />
        </mxCell>
        <mxCell id="hHaVew3OzkUkbx7VyQ1x-33" style="edgeStyle=orthogonalEdgeStyle;rounded=0;orthogonalLoop=1;jettySize=auto;html=1;exitX=1;exitY=0.5;exitDx=0;exitDy=0;entryX=0;entryY=0.5;entryDx=0;entryDy=0;fontFamily=Helvetica;fontSize=12;fontColor=default;" edge="1" parent="1" source="hHaVew3OzkUkbx7VyQ1x-34" target="hHaVew3OzkUkbx7VyQ1x-37">
          <mxGeometry relative="1" as="geometry" />
        </mxCell>
        <mxCell id="hHaVew3OzkUkbx7VyQ1x-34" value="&lt;font style=&quot;font-size: 15px;&quot;&gt;GRU：B×(S/2)×D&lt;/font&gt;&lt;div&gt;&lt;font style=&quot;font-size: 15px;&quot;&gt;如 1×521×48&lt;/font&gt;&lt;/div&gt;" style="rounded=1;whiteSpace=wrap;html=1;" vertex="1" parent="1">
          <mxGeometry x="1217" y="645" width="143" height="40" as="geometry" />
        </mxCell>
        <mxCell id="hHaVew3OzkUkbx7VyQ1x-35" style="edgeStyle=orthogonalEdgeStyle;rounded=0;orthogonalLoop=1;jettySize=auto;html=1;exitX=1;exitY=0.5;exitDx=0;exitDy=0;fontFamily=Helvetica;fontSize=12;fontColor=default;" edge="1" parent="1" source="hHaVew3OzkUkbx7VyQ1x-37" target="hHaVew3OzkUkbx7VyQ1x-78">
          <mxGeometry relative="1" as="geometry">
            <mxPoint x="1260" y="665.3529411764707" as="targetPoint" />
          </mxGeometry>
        </mxCell>
        <mxCell id="hHaVew3OzkUkbx7VyQ1x-36" style="edgeStyle=orthogonalEdgeStyle;rounded=0;orthogonalLoop=1;jettySize=auto;html=1;exitX=1;exitY=0.5;exitDx=0;exitDy=0;entryX=0;entryY=0.25;entryDx=0;entryDy=0;fontFamily=Helvetica;fontSize=12;fontColor=default;" edge="1" parent="1" source="hHaVew3OzkUkbx7VyQ1x-37" target="hHaVew3OzkUkbx7VyQ1x-78">
          <mxGeometry relative="1" as="geometry">
            <Array as="points">
              <mxPoint x="1690" y="665" />
              <mxPoint x="1690" y="653" />
            </Array>
          </mxGeometry>
        </mxCell>
        <mxCell id="hHaVew3OzkUkbx7VyQ1x-37" value="" style="shape=orEllipse;perimeter=ellipsePerimeter;whiteSpace=wrap;html=1;backgroundOutline=1;rounded=1;strokeColor=default;align=center;verticalAlign=middle;fontFamily=Helvetica;fontSize=12;fontColor=default;fillColor=default;" vertex="1" parent="1">
          <mxGeometry x="1407" y="652.5" width="25" height="25" as="geometry" />
        </mxCell>
        <mxCell id="hHaVew3OzkUkbx7VyQ1x-38" style="edgeStyle=orthogonalEdgeStyle;rounded=0;orthogonalLoop=1;jettySize=auto;html=1;exitX=1;exitY=0.5;exitDx=0;exitDy=0;entryX=0;entryY=0.5;entryDx=0;entryDy=0;fontFamily=Helvetica;fontSize=12;fontColor=default;" edge="1" parent="1" source="hHaVew3OzkUkbx7VyQ1x-39" target="hHaVew3OzkUkbx7VyQ1x-42">
          <mxGeometry relative="1" as="geometry" />
        </mxCell>
        <mxCell id="hHaVew3OzkUkbx7VyQ1x-39" value="&lt;font style=&quot;font-size: 15px;&quot;&gt;AutoCorrelation：B×(S/4)×D&lt;/font&gt;&lt;div&gt;&lt;font style=&quot;font-size: 15px;&quot;&gt;out： 32×521×24&lt;/font&gt;&lt;/div&gt;" style="rounded=1;whiteSpace=wrap;html=1;" vertex="1" parent="1">
          <mxGeometry x="750" y="790" width="210" height="50" as="geometry" />
        </mxCell>
        <mxCell id="hHaVew3OzkUkbx7VyQ1x-40" style="edgeStyle=orthogonalEdgeStyle;rounded=0;orthogonalLoop=1;jettySize=auto;html=1;exitX=1;exitY=0.5;exitDx=0;exitDy=0;entryX=0;entryY=0.5;entryDx=0;entryDy=0;fontFamily=Helvetica;fontSize=12;fontColor=default;" edge="1" parent="1" source="hHaVew3OzkUkbx7VyQ1x-42" target="hHaVew3OzkUkbx7VyQ1x-44">
          <mxGeometry relative="1" as="geometry" />
        </mxCell>
        <mxCell id="hHaVew3OzkUkbx7VyQ1x-41" style="edgeStyle=orthogonalEdgeStyle;rounded=0;orthogonalLoop=1;jettySize=auto;html=1;exitX=1;exitY=0.5;exitDx=0;exitDy=0;entryX=0.5;entryY=0;entryDx=0;entryDy=0;fontFamily=Helvetica;fontSize=12;fontColor=default;" edge="1" parent="1" source="hHaVew3OzkUkbx7VyQ1x-42" target="hHaVew3OzkUkbx7VyQ1x-47">
          <mxGeometry relative="1" as="geometry">
            <Array as="points">
              <mxPoint x="1080" y="815" />
              <mxPoint x="1080" y="783" />
              <mxPoint x="1335" y="783" />
            </Array>
          </mxGeometry>
        </mxCell>
        <mxCell id="hHaVew3OzkUkbx7VyQ1x-42" value="" style="shape=orEllipse;perimeter=ellipsePerimeter;whiteSpace=wrap;html=1;backgroundOutline=1;rounded=1;strokeColor=default;align=center;verticalAlign=middle;fontFamily=Helvetica;fontSize=12;fontColor=default;fillColor=default;" vertex="1" parent="1">
          <mxGeometry x="990" y="802.5" width="25" height="25" as="geometry" />
        </mxCell>
        <mxCell id="hHaVew3OzkUkbx7VyQ1x-43" style="edgeStyle=orthogonalEdgeStyle;rounded=0;orthogonalLoop=1;jettySize=auto;html=1;exitX=1;exitY=0.5;exitDx=0;exitDy=0;entryX=0;entryY=0.5;entryDx=0;entryDy=0;fontFamily=Helvetica;fontSize=12;fontColor=default;" edge="1" parent="1" source="hHaVew3OzkUkbx7VyQ1x-44" target="hHaVew3OzkUkbx7VyQ1x-47">
          <mxGeometry relative="1" as="geometry" />
        </mxCell>
        <mxCell id="hHaVew3OzkUkbx7VyQ1x-44" value="&lt;font style=&quot;font-size: 15px;&quot;&gt;GRU：B×(S/4)×D&lt;/font&gt;&lt;div&gt;&lt;font style=&quot;font-size: 15px;&quot;&gt;如 1×32*521×24&lt;/font&gt;&lt;/div&gt;" style="rounded=1;whiteSpace=wrap;html=1;" vertex="1" parent="1">
          <mxGeometry x="1132.5" y="795" width="137.5" height="40" as="geometry" />
        </mxCell>
        <mxCell id="hHaVew3OzkUkbx7VyQ1x-45" style="edgeStyle=orthogonalEdgeStyle;rounded=0;orthogonalLoop=1;jettySize=auto;html=1;exitX=1;exitY=0.5;exitDx=0;exitDy=0;fontFamily=Helvetica;fontSize=12;fontColor=default;" edge="1" parent="1" source="hHaVew3OzkUkbx7VyQ1x-47" target="hHaVew3OzkUkbx7VyQ1x-61">
          <mxGeometry relative="1" as="geometry">
            <mxPoint x="1350" y="815.3529411764707" as="targetPoint" />
            <Array as="points">
              <mxPoint x="1430" y="815" />
              <mxPoint x="1430" y="820" />
            </Array>
          </mxGeometry>
        </mxCell>
        <mxCell id="hHaVew3OzkUkbx7VyQ1x-46" style="edgeStyle=orthogonalEdgeStyle;rounded=0;orthogonalLoop=1;jettySize=auto;html=1;exitX=1;exitY=0.5;exitDx=0;exitDy=0;fontFamily=Helvetica;fontSize=12;fontColor=default;entryX=0;entryY=0.25;entryDx=0;entryDy=0;" edge="1" parent="1" source="hHaVew3OzkUkbx7VyQ1x-47" target="hHaVew3OzkUkbx7VyQ1x-61">
          <mxGeometry relative="1" as="geometry">
            <mxPoint x="1370" y="800" as="targetPoint" />
            <Array as="points">
              <mxPoint x="1430" y="815" />
              <mxPoint x="1430" y="808" />
            </Array>
          </mxGeometry>
        </mxCell>
        <mxCell id="hHaVew3OzkUkbx7VyQ1x-47" value="" style="shape=orEllipse;perimeter=ellipsePerimeter;whiteSpace=wrap;html=1;backgroundOutline=1;rounded=1;strokeColor=default;align=center;verticalAlign=middle;fontFamily=Helvetica;fontSize=12;fontColor=default;fillColor=default;" vertex="1" parent="1">
          <mxGeometry x="1322.5" y="802.5" width="25" height="25" as="geometry" />
        </mxCell>
        <mxCell id="hHaVew3OzkUkbx7VyQ1x-48" style="edgeStyle=orthogonalEdgeStyle;rounded=0;orthogonalLoop=1;jettySize=auto;html=1;exitX=1;exitY=0.5;exitDx=0;exitDy=0;entryX=0;entryY=0.5;entryDx=0;entryDy=0;fontFamily=Helvetica;fontSize=12;fontColor=default;" edge="1" parent="1" source="hHaVew3OzkUkbx7VyQ1x-49" target="hHaVew3OzkUkbx7VyQ1x-52">
          <mxGeometry relative="1" as="geometry" />
        </mxCell>
        <mxCell id="hHaVew3OzkUkbx7VyQ1x-49" value="&lt;font style=&quot;font-size: 15px;&quot;&gt;AutoCorrelation：B×(S/8)×D&lt;/font&gt;&lt;div&gt;&lt;font style=&quot;font-size: 15px;&quot;&gt;out： 32×512×12&lt;/font&gt;&lt;/div&gt;" style="rounded=1;whiteSpace=wrap;html=1;" vertex="1" parent="1">
          <mxGeometry x="850" y="960" width="210" height="50" as="geometry" />
        </mxCell>
        <mxCell id="hHaVew3OzkUkbx7VyQ1x-50" style="edgeStyle=orthogonalEdgeStyle;rounded=0;orthogonalLoop=1;jettySize=auto;html=1;exitX=1;exitY=0.5;exitDx=0;exitDy=0;entryX=0;entryY=0.5;entryDx=0;entryDy=0;fontFamily=Helvetica;fontSize=12;fontColor=default;" edge="1" parent="1" source="hHaVew3OzkUkbx7VyQ1x-52" target="hHaVew3OzkUkbx7VyQ1x-54">
          <mxGeometry relative="1" as="geometry" />
        </mxCell>
        <mxCell id="hHaVew3OzkUkbx7VyQ1x-51" style="edgeStyle=orthogonalEdgeStyle;rounded=0;orthogonalLoop=1;jettySize=auto;html=1;exitX=1;exitY=0.5;exitDx=0;exitDy=0;entryX=0.5;entryY=0;entryDx=0;entryDy=0;fontFamily=Helvetica;fontSize=12;fontColor=default;" edge="1" parent="1" source="hHaVew3OzkUkbx7VyQ1x-52" target="hHaVew3OzkUkbx7VyQ1x-56">
          <mxGeometry relative="1" as="geometry">
            <Array as="points">
              <mxPoint x="1150" y="985" />
              <mxPoint x="1150" y="953" />
              <mxPoint x="1383" y="953" />
            </Array>
          </mxGeometry>
        </mxCell>
        <mxCell id="hHaVew3OzkUkbx7VyQ1x-52" value="" style="shape=orEllipse;perimeter=ellipsePerimeter;whiteSpace=wrap;html=1;backgroundOutline=1;rounded=1;strokeColor=default;align=center;verticalAlign=middle;fontFamily=Helvetica;fontSize=12;fontColor=default;fillColor=default;" vertex="1" parent="1">
          <mxGeometry x="1090" y="972.5" width="25" height="25" as="geometry" />
        </mxCell>
        <mxCell id="hHaVew3OzkUkbx7VyQ1x-53" style="edgeStyle=orthogonalEdgeStyle;rounded=0;orthogonalLoop=1;jettySize=auto;html=1;exitX=1;exitY=0.5;exitDx=0;exitDy=0;entryX=0;entryY=0.5;entryDx=0;entryDy=0;fontFamily=Helvetica;fontSize=12;fontColor=default;" edge="1" parent="1" source="hHaVew3OzkUkbx7VyQ1x-54" target="hHaVew3OzkUkbx7VyQ1x-56">
          <mxGeometry relative="1" as="geometry" />
        </mxCell>
        <mxCell id="hHaVew3OzkUkbx7VyQ1x-54" value="&lt;font style=&quot;font-size: 15px;&quot;&gt;GRU：B×(S/8)×D&lt;/font&gt;&lt;div&gt;&lt;font style=&quot;font-size: 15px;&quot;&gt;如 1×32*521×12&lt;/font&gt;&lt;/div&gt;" style="rounded=1;whiteSpace=wrap;html=1;" vertex="1" parent="1">
          <mxGeometry x="1180" y="965" width="140" height="40" as="geometry" />
        </mxCell>
        <mxCell id="hHaVew3OzkUkbx7VyQ1x-55" style="edgeStyle=orthogonalEdgeStyle;rounded=0;orthogonalLoop=1;jettySize=auto;html=1;exitX=1;exitY=0.5;exitDx=0;exitDy=0;fontFamily=Helvetica;fontSize=12;fontColor=default;entryX=0;entryY=0.75;entryDx=0;entryDy=0;" edge="1" parent="1" source="hHaVew3OzkUkbx7VyQ1x-56" target="hHaVew3OzkUkbx7VyQ1x-61">
          <mxGeometry relative="1" as="geometry">
            <mxPoint x="1450" y="985.3529411764707" as="targetPoint" />
          </mxGeometry>
        </mxCell>
        <mxCell id="hHaVew3OzkUkbx7VyQ1x-56" value="" style="shape=orEllipse;perimeter=ellipsePerimeter;whiteSpace=wrap;html=1;backgroundOutline=1;rounded=1;strokeColor=default;align=center;verticalAlign=middle;fontFamily=Helvetica;fontSize=12;fontColor=default;fillColor=default;" vertex="1" parent="1">
          <mxGeometry x="1370" y="972.5" width="25" height="25" as="geometry" />
        </mxCell>
        <mxCell id="hHaVew3OzkUkbx7VyQ1x-57" value="12 个 512 之间的相关关系" style="text;html=1;align=center;verticalAlign=middle;whiteSpace=wrap;rounded=0;fontFamily=Helvetica;fontSize=12;fontColor=default;" vertex="1" parent="1">
          <mxGeometry x="883" y="1050" width="167" height="50" as="geometry" />
        </mxCell>
        <mxCell id="hHaVew3OzkUkbx7VyQ1x-58" value="12 个 步长之间的相关关系" style="text;html=1;align=center;verticalAlign=middle;whiteSpace=wrap;rounded=0;fontFamily=Helvetica;fontSize=12;fontColor=default;" vertex="1" parent="1">
          <mxGeometry x="1160" y="1040" width="167" height="50" as="geometry" />
        </mxCell>
        <mxCell id="hHaVew3OzkUkbx7VyQ1x-59" value="12 之间的相关关系&lt;div&gt;512 之间的相关关系&lt;/div&gt;" style="text;html=1;align=center;verticalAlign=middle;whiteSpace=wrap;rounded=0;fontFamily=Helvetica;fontSize=12;fontColor=default;" vertex="1" parent="1">
          <mxGeometry x="883" y="1090" width="167" height="50" as="geometry" />
        </mxCell>
        <mxCell id="hHaVew3OzkUkbx7VyQ1x-60" style="edgeStyle=orthogonalEdgeStyle;rounded=0;orthogonalLoop=1;jettySize=auto;html=1;exitX=1;exitY=0.5;exitDx=0;exitDy=0;entryX=0;entryY=0.75;entryDx=0;entryDy=0;fontFamily=Helvetica;fontSize=12;fontColor=default;" edge="1" parent="1" source="hHaVew3OzkUkbx7VyQ1x-61" target="hHaVew3OzkUkbx7VyQ1x-78">
          <mxGeometry relative="1" as="geometry" />
        </mxCell>
        <mxCell id="hHaVew3OzkUkbx7VyQ1x-61" value="&lt;font style=&quot;font-size: 15px;&quot;&gt;AutoCorrelation：B×(S/4)×D&lt;/font&gt;&lt;div&gt;&lt;font style=&quot;font-size: 15px;&quot;&gt;out： 32×512×12&lt;/font&gt;&lt;/div&gt;" style="rounded=1;whiteSpace=wrap;html=1;" vertex="1" parent="1">
          <mxGeometry x="1460" y="795" width="200" height="50" as="geometry" />
        </mxCell>
        <mxCell id="hHaVew3OzkUkbx7VyQ1x-62" value="&lt;font style=&quot;font-size: 9px;&quot;&gt;V&lt;/font&gt;" style="text;html=1;align=center;verticalAlign=middle;whiteSpace=wrap;rounded=0;fontFamily=Helvetica;fontSize=12;fontColor=default;" vertex="1" parent="1">
          <mxGeometry x="612.5" y="642" width="15" height="7.5" as="geometry" />
        </mxCell>
        <mxCell id="hHaVew3OzkUkbx7VyQ1x-63" value="&lt;font style=&quot;font-size: 9px;&quot;&gt;K&lt;/font&gt;" style="text;html=1;align=center;verticalAlign=middle;whiteSpace=wrap;rounded=0;fontFamily=Helvetica;fontSize=12;fontColor=default;" vertex="1" parent="1">
          <mxGeometry x="612.5" y="655.5" width="15" height="7.5" as="geometry" />
        </mxCell>
        <mxCell id="hHaVew3OzkUkbx7VyQ1x-64" value="&lt;span style=&quot;font-size: 9px;&quot;&gt;Q&lt;/span&gt;" style="text;html=1;align=center;verticalAlign=middle;whiteSpace=wrap;rounded=0;fontFamily=Helvetica;fontSize=12;fontColor=default;" vertex="1" parent="1">
          <mxGeometry x="612.5" y="667" width="15" height="7.5" as="geometry" />
        </mxCell>
        <mxCell id="hHaVew3OzkUkbx7VyQ1x-65" value="&lt;font style=&quot;font-size: 9px;&quot;&gt;V&lt;/font&gt;" style="text;html=1;align=center;verticalAlign=middle;whiteSpace=wrap;rounded=0;fontFamily=Helvetica;fontSize=12;fontColor=default;" vertex="1" parent="1">
          <mxGeometry x="711" y="792" width="15" height="7.5" as="geometry" />
        </mxCell>
        <mxCell id="hHaVew3OzkUkbx7VyQ1x-66" value="&lt;font style=&quot;font-size: 9px;&quot;&gt;K&lt;/font&gt;" style="text;html=1;align=center;verticalAlign=middle;whiteSpace=wrap;rounded=0;fontFamily=Helvetica;fontSize=12;fontColor=default;" vertex="1" parent="1">
          <mxGeometry x="711" y="805.5" width="15" height="7.5" as="geometry" />
        </mxCell>
        <mxCell id="hHaVew3OzkUkbx7VyQ1x-67" value="&lt;span style=&quot;font-size: 9px;&quot;&gt;Q&lt;/span&gt;" style="text;html=1;align=center;verticalAlign=middle;whiteSpace=wrap;rounded=0;fontFamily=Helvetica;fontSize=12;fontColor=default;" vertex="1" parent="1">
          <mxGeometry x="711" y="817" width="15" height="7.5" as="geometry" />
        </mxCell>
        <mxCell id="hHaVew3OzkUkbx7VyQ1x-68" value="&lt;font style=&quot;font-size: 9px;&quot;&gt;V&lt;/font&gt;" style="text;html=1;align=center;verticalAlign=middle;whiteSpace=wrap;rounded=0;fontFamily=Helvetica;fontSize=12;fontColor=default;" vertex="1" parent="1">
          <mxGeometry x="819" y="962" width="15" height="7.5" as="geometry" />
        </mxCell>
        <mxCell id="hHaVew3OzkUkbx7VyQ1x-69" value="&lt;font style=&quot;font-size: 9px;&quot;&gt;K&lt;/font&gt;" style="text;html=1;align=center;verticalAlign=middle;whiteSpace=wrap;rounded=0;fontFamily=Helvetica;fontSize=12;fontColor=default;" vertex="1" parent="1">
          <mxGeometry x="819" y="975.5" width="15" height="7.5" as="geometry" />
        </mxCell>
        <mxCell id="hHaVew3OzkUkbx7VyQ1x-70" value="&lt;span style=&quot;font-size: 9px;&quot;&gt;Q&lt;/span&gt;" style="text;html=1;align=center;verticalAlign=middle;whiteSpace=wrap;rounded=0;fontFamily=Helvetica;fontSize=12;fontColor=default;" vertex="1" parent="1">
          <mxGeometry x="819" y="987" width="15" height="7.5" as="geometry" />
        </mxCell>
        <mxCell id="hHaVew3OzkUkbx7VyQ1x-71" value="&lt;font style=&quot;font-size: 9px;&quot;&gt;V&lt;/font&gt;" style="text;html=1;align=center;verticalAlign=middle;whiteSpace=wrap;rounded=0;fontFamily=Helvetica;fontSize=12;fontColor=default;" vertex="1" parent="1">
          <mxGeometry x="540" y="483" width="15" height="7.5" as="geometry" />
        </mxCell>
        <mxCell id="hHaVew3OzkUkbx7VyQ1x-72" value="&lt;font style=&quot;font-size: 9px;&quot;&gt;K&lt;/font&gt;" style="text;html=1;align=center;verticalAlign=middle;whiteSpace=wrap;rounded=0;fontFamily=Helvetica;fontSize=12;fontColor=default;" vertex="1" parent="1">
          <mxGeometry x="540" y="496.5" width="15" height="7.5" as="geometry" />
        </mxCell>
        <mxCell id="hHaVew3OzkUkbx7VyQ1x-73" value="&lt;span style=&quot;font-size: 9px;&quot;&gt;Q&lt;/span&gt;" style="text;html=1;align=center;verticalAlign=middle;whiteSpace=wrap;rounded=0;fontFamily=Helvetica;fontSize=12;fontColor=default;" vertex="1" parent="1">
          <mxGeometry x="540" y="508" width="15" height="7.5" as="geometry" />
        </mxCell>
        <mxCell id="hHaVew3OzkUkbx7VyQ1x-74" value="&lt;font style=&quot;font-size: 9px;&quot;&gt;V&lt;/font&gt;" style="text;html=1;align=center;verticalAlign=middle;whiteSpace=wrap;rounded=0;fontFamily=Helvetica;fontSize=12;fontColor=default;" vertex="1" parent="1">
          <mxGeometry x="1432" y="796.75" width="15" height="7.5" as="geometry" />
        </mxCell>
        <mxCell id="hHaVew3OzkUkbx7VyQ1x-75" value="&lt;font style=&quot;font-size: 9px;&quot;&gt;K&lt;/font&gt;" style="text;html=1;align=center;verticalAlign=middle;whiteSpace=wrap;rounded=0;fontFamily=Helvetica;fontSize=12;fontColor=default;" vertex="1" parent="1">
          <mxGeometry x="1432" y="810.25" width="15" height="7.5" as="geometry" />
        </mxCell>
        <mxCell id="hHaVew3OzkUkbx7VyQ1x-76" value="&lt;span style=&quot;font-size: 9px;&quot;&gt;Q&lt;/span&gt;" style="text;html=1;align=center;verticalAlign=middle;whiteSpace=wrap;rounded=0;fontFamily=Helvetica;fontSize=12;fontColor=default;" vertex="1" parent="1">
          <mxGeometry x="1432" y="821.75" width="15" height="7.5" as="geometry" />
        </mxCell>
        <mxCell id="hHaVew3OzkUkbx7VyQ1x-77" style="edgeStyle=orthogonalEdgeStyle;rounded=0;orthogonalLoop=1;jettySize=auto;html=1;exitX=1;exitY=0.5;exitDx=0;exitDy=0;entryX=0;entryY=0.75;entryDx=0;entryDy=0;fontFamily=Helvetica;fontSize=12;fontColor=default;" edge="1" parent="1" source="hHaVew3OzkUkbx7VyQ1x-78" target="hHaVew3OzkUkbx7VyQ1x-80">
          <mxGeometry relative="1" as="geometry" />
        </mxCell>
        <mxCell id="hHaVew3OzkUkbx7VyQ1x-78" value="&lt;font style=&quot;font-size: 15px;&quot;&gt;AutoCorrelation：B×(S/2)×D&lt;/font&gt;&lt;div&gt;&lt;font style=&quot;font-size: 15px;&quot;&gt;out： 32×512×12&lt;/font&gt;&lt;/div&gt;" style="rounded=1;whiteSpace=wrap;html=1;" vertex="1" parent="1">
          <mxGeometry x="1720" y="640" width="200" height="50" as="geometry" />
        </mxCell>
        <mxCell id="hHaVew3OzkUkbx7VyQ1x-79" style="edgeStyle=orthogonalEdgeStyle;rounded=0;orthogonalLoop=1;jettySize=auto;html=1;exitX=1;exitY=0.5;exitDx=0;exitDy=0;entryX=0;entryY=0.5;entryDx=0;entryDy=0;fontFamily=Helvetica;fontSize=12;fontColor=default;" edge="1" parent="1" source="hHaVew3OzkUkbx7VyQ1x-80" target="hHaVew3OzkUkbx7VyQ1x-97">
          <mxGeometry relative="1" as="geometry" />
        </mxCell>
        <mxCell id="hHaVew3OzkUkbx7VyQ1x-80" value="&lt;font style=&quot;font-size: 15px;&quot;&gt;AutoCorrelation：B×S×D&lt;/font&gt;&lt;div&gt;&lt;font style=&quot;font-size: 15px;&quot;&gt;out： 32×512×96&lt;/font&gt;&lt;/div&gt;" style="rounded=1;whiteSpace=wrap;html=1;" vertex="1" parent="1">
          <mxGeometry x="2000" y="480" width="190" height="50" as="geometry" />
        </mxCell>
        <mxCell id="hHaVew3OzkUkbx7VyQ1x-81" style="edgeStyle=orthogonalEdgeStyle;rounded=0;orthogonalLoop=1;jettySize=auto;html=1;exitX=1;exitY=0.5;exitDx=0;exitDy=0;entryX=0;entryY=0.5;entryDx=0;entryDy=0;fontFamily=Helvetica;fontSize=12;fontColor=default;" edge="1" parent="1" source="hHaVew3OzkUkbx7VyQ1x-82" target="hHaVew3OzkUkbx7VyQ1x-85">
          <mxGeometry relative="1" as="geometry" />
        </mxCell>
        <mxCell id="hHaVew3OzkUkbx7VyQ1x-82" value="&lt;font style=&quot;font-size: 15px;&quot;&gt;AutoCorrelation：B×S×D&lt;/font&gt;&lt;div&gt;&lt;font style=&quot;font-size: 15px;&quot;&gt;out： 32×521×96&lt;/font&gt;&lt;/div&gt;" style="rounded=1;whiteSpace=wrap;html=1;" vertex="1" parent="1">
          <mxGeometry x="570" y="480" width="190" height="50" as="geometry" />
        </mxCell>
        <mxCell id="hHaVew3OzkUkbx7VyQ1x-83" style="edgeStyle=orthogonalEdgeStyle;rounded=0;orthogonalLoop=1;jettySize=auto;html=1;exitX=1;exitY=0.5;exitDx=0;exitDy=0;entryX=0;entryY=0.5;entryDx=0;entryDy=0;fontFamily=Helvetica;fontSize=12;fontColor=default;" edge="1" parent="1" source="hHaVew3OzkUkbx7VyQ1x-85" target="hHaVew3OzkUkbx7VyQ1x-87">
          <mxGeometry relative="1" as="geometry" />
        </mxCell>
        <mxCell id="hHaVew3OzkUkbx7VyQ1x-84" style="edgeStyle=orthogonalEdgeStyle;rounded=0;orthogonalLoop=1;jettySize=auto;html=1;exitX=1;exitY=0.5;exitDx=0;exitDy=0;entryX=0.5;entryY=0;entryDx=0;entryDy=0;fontFamily=Helvetica;fontSize=12;fontColor=default;" edge="1" parent="1" source="hHaVew3OzkUkbx7VyQ1x-85" target="hHaVew3OzkUkbx7VyQ1x-90">
          <mxGeometry relative="1" as="geometry">
            <Array as="points">
              <mxPoint x="1070" y="505" />
              <mxPoint x="1070" y="460" />
              <mxPoint x="1433" y="460" />
            </Array>
          </mxGeometry>
        </mxCell>
        <mxCell id="hHaVew3OzkUkbx7VyQ1x-85" value="" style="shape=orEllipse;perimeter=ellipsePerimeter;whiteSpace=wrap;html=1;backgroundOutline=1;rounded=1;strokeColor=default;align=center;verticalAlign=middle;fontFamily=Helvetica;fontSize=12;fontColor=default;fillColor=default;" vertex="1" parent="1">
          <mxGeometry x="800" y="492.5" width="25" height="25" as="geometry" />
        </mxCell>
        <mxCell id="hHaVew3OzkUkbx7VyQ1x-86" style="edgeStyle=orthogonalEdgeStyle;rounded=0;orthogonalLoop=1;jettySize=auto;html=1;exitX=1;exitY=0.5;exitDx=0;exitDy=0;entryX=0;entryY=0.5;entryDx=0;entryDy=0;fontFamily=Helvetica;fontSize=12;fontColor=default;" edge="1" parent="1" source="hHaVew3OzkUkbx7VyQ1x-87" target="hHaVew3OzkUkbx7VyQ1x-90">
          <mxGeometry relative="1" as="geometry" />
        </mxCell>
        <mxCell id="hHaVew3OzkUkbx7VyQ1x-87" value="&lt;font style=&quot;font-size: 15px;&quot;&gt;GRU：B×S×D&lt;/font&gt;&lt;div&gt;&lt;font style=&quot;font-size: 15px;&quot;&gt;如 1×521×96&lt;/font&gt;&lt;/div&gt;" style="rounded=1;whiteSpace=wrap;html=1;" vertex="1" parent="1">
          <mxGeometry x="1260" y="485" width="120" height="40" as="geometry" />
        </mxCell>
        <mxCell id="hHaVew3OzkUkbx7VyQ1x-88" style="edgeStyle=orthogonalEdgeStyle;rounded=0;orthogonalLoop=1;jettySize=auto;html=1;exitX=1;exitY=0.5;exitDx=0;exitDy=0;fontFamily=Helvetica;fontSize=12;fontColor=default;entryX=0;entryY=0.5;entryDx=0;entryDy=0;" edge="1" parent="1" source="hHaVew3OzkUkbx7VyQ1x-90" target="hHaVew3OzkUkbx7VyQ1x-80">
          <mxGeometry relative="1" as="geometry">
            <mxPoint x="1110" y="504.66666666666674" as="targetPoint" />
          </mxGeometry>
        </mxCell>
        <mxCell id="hHaVew3OzkUkbx7VyQ1x-89" style="edgeStyle=orthogonalEdgeStyle;rounded=0;orthogonalLoop=1;jettySize=auto;html=1;exitX=1;exitY=0.5;exitDx=0;exitDy=0;entryX=0;entryY=0.25;entryDx=0;entryDy=0;fontFamily=Helvetica;fontSize=12;fontColor=default;" edge="1" parent="1" source="hHaVew3OzkUkbx7VyQ1x-90" target="hHaVew3OzkUkbx7VyQ1x-80">
          <mxGeometry relative="1" as="geometry">
            <Array as="points">
              <mxPoint x="1960" y="505" />
              <mxPoint x="1960" y="493" />
            </Array>
          </mxGeometry>
        </mxCell>
        <mxCell id="hHaVew3OzkUkbx7VyQ1x-90" value="" style="shape=orEllipse;perimeter=ellipsePerimeter;whiteSpace=wrap;html=1;backgroundOutline=1;rounded=1;strokeColor=default;align=center;verticalAlign=middle;fontFamily=Helvetica;fontSize=12;fontColor=default;fillColor=default;" vertex="1" parent="1">
          <mxGeometry x="1420" y="492.5" width="25" height="25" as="geometry" />
        </mxCell>
        <mxCell id="hHaVew3OzkUkbx7VyQ1x-91" value="&lt;font style=&quot;font-size: 9px;&quot;&gt;V&lt;/font&gt;" style="text;html=1;align=center;verticalAlign=middle;whiteSpace=wrap;rounded=0;fontFamily=Helvetica;fontSize=12;fontColor=default;" vertex="1" parent="1">
          <mxGeometry x="1694" y="642" width="15" height="7.5" as="geometry" />
        </mxCell>
        <mxCell id="hHaVew3OzkUkbx7VyQ1x-92" value="&lt;font style=&quot;font-size: 9px;&quot;&gt;K&lt;/font&gt;" style="text;html=1;align=center;verticalAlign=middle;whiteSpace=wrap;rounded=0;fontFamily=Helvetica;fontSize=12;fontColor=default;" vertex="1" parent="1">
          <mxGeometry x="1694" y="655.5" width="15" height="7.5" as="geometry" />
        </mxCell>
        <mxCell id="hHaVew3OzkUkbx7VyQ1x-93" value="&lt;span style=&quot;font-size: 9px;&quot;&gt;Q&lt;/span&gt;" style="text;html=1;align=center;verticalAlign=middle;whiteSpace=wrap;rounded=0;fontFamily=Helvetica;fontSize=12;fontColor=default;" vertex="1" parent="1">
          <mxGeometry x="1694" y="667" width="15" height="7.5" as="geometry" />
        </mxCell>
        <mxCell id="hHaVew3OzkUkbx7VyQ1x-94" value="&lt;font style=&quot;font-size: 9px;&quot;&gt;V&lt;/font&gt;" style="text;html=1;align=center;verticalAlign=middle;whiteSpace=wrap;rounded=0;fontFamily=Helvetica;fontSize=12;fontColor=default;" vertex="1" parent="1">
          <mxGeometry x="1970" y="482" width="15" height="7.5" as="geometry" />
        </mxCell>
        <mxCell id="hHaVew3OzkUkbx7VyQ1x-95" value="&lt;font style=&quot;font-size: 9px;&quot;&gt;K&lt;/font&gt;" style="text;html=1;align=center;verticalAlign=middle;whiteSpace=wrap;rounded=0;fontFamily=Helvetica;fontSize=12;fontColor=default;" vertex="1" parent="1">
          <mxGeometry x="1970" y="495.5" width="15" height="7.5" as="geometry" />
        </mxCell>
        <mxCell id="hHaVew3OzkUkbx7VyQ1x-96" value="&lt;span style=&quot;font-size: 9px;&quot;&gt;Q&lt;/span&gt;" style="text;html=1;align=center;verticalAlign=middle;whiteSpace=wrap;rounded=0;fontFamily=Helvetica;fontSize=12;fontColor=default;" vertex="1" parent="1">
          <mxGeometry x="1970" y="507" width="15" height="7.5" as="geometry" />
        </mxCell>
        <mxCell id="hHaVew3OzkUkbx7VyQ1x-97" value="&lt;font style=&quot;font-size: 15px;&quot;&gt;FFN：B×(pred_len)×D&lt;/font&gt;&lt;div&gt;&lt;font style=&quot;font-size: 15px;&quot;&gt;out： 32×720×321&lt;/font&gt;&lt;/div&gt;" style="rounded=1;whiteSpace=wrap;html=1;" vertex="1" parent="1">
          <mxGeometry x="2250" y="480" width="190" height="50" as="geometry" />
        </mxCell>
        <mxCell id="hHaVew3OzkUkbx7VyQ1x-98" value="&lt;b style=&quot;color: light-dark(rgb(0, 0, 0), rgb(237, 237, 237));&quot;&gt;MaxPool+AvgPool&lt;/b&gt;" style="text;html=1;align=center;verticalAlign=middle;whiteSpace=wrap;rounded=0;fontFamily=Helvetica;fontSize=12;fontColor=default;" vertex="1" parent="1">
          <mxGeometry x="294" y="430" width="120" height="30" as="geometry" />
        </mxCell>
      </root>
    </mxGraphModel>
  </diagram>
</mxfile>
